<svg id="Camada_1" data-name="Camada 1" xmlns="http://www.w3.org/2000/svg" viewBox="0 0 377 274.46"><defs><style>.cls-1{fill:#ececec;}.cls-2{fill:#f0f0f0;}.cls-3{fill:#e7e7e7;}.cls-4{fill:#e1e1e1;}.cls-5{fill:#f5f5f5;}.cls-6{fill:#1a2e35;}.cls-10,.cls-11,.cls-14,.cls-16,.cls-17,.cls-19,.cls-20,.cls-29,.cls-7,.cls-9{fill:#fff;}.cls-19,.cls-22,.cls-7{opacity:0.3;}.cls-10,.cls-12,.cls-16,.cls-21,.cls-22,.cls-23,.cls-27,.cls-7,.cls-9{isolation:isolate;}.cls-8{fill:#007cff;}.cls-12,.cls-9{opacity:0.2;}.cls-10,.cls-11,.cls-30{opacity:0.5;}.cls-13,.cls-16,.cls-20{opacity:0.6;}.cls-15,.cls-17{opacity:0.7;}.cls-18{fill:#ffb570;}.cls-21,.cls-26,.cls-29{opacity:0.1;}.cls-23{opacity:0.4;}.cls-24{fill:#ff8935;}.cls-25{fill:#ba221f;}.cls-28{fill:none;stroke:#1a2e35;stroke-miterlimit:10;stroke-width:1.22px;}</style></defs><rect class="cls-1" y="246.89" width="377" height="0.19"/><rect class="cls-1" x="314.25" y="259.03" width="24.97" height="0.19"/><rect class="cls-1" x="243.19" y="261.08" width="6.55" height="0.19"/><rect class="cls-1" x="299.03" y="252.03" width="14.47" height="0.19"/><rect class="cls-1" x="39.55" y="253.3" width="32.57" height="0.19"/><rect class="cls-1" x="78.83" y="253.3" width="4.78" height="0.19"/><rect class="cls-1" x="99.13" y="256.48" width="70.63" height="0.19"/><path class="cls-1" d="M167.71,253.31H22.11a4.31,4.31,0,0,1-4.3-4.3V44.35A4.31,4.31,0,0,1,22.11,40h145.6a4.31,4.31,0,0,1,4.3,4.31V249A4.31,4.31,0,0,1,167.71,253.31ZM22.11,40.23A4.12,4.12,0,0,0,18,44.35V249a4.11,4.11,0,0,0,4.11,4.11h145.6a4.11,4.11,0,0,0,4.11-4.11V44.35a4.12,4.12,0,0,0-4.11-4.12Z" transform="translate(11 -40.04)"/><path class="cls-1" d="M330.8,253.31H185.2a4.31,4.31,0,0,1-4.3-4.3V44.35A4.31,4.31,0,0,1,185.2,40H330.8a4.31,4.31,0,0,1,4.3,4.31V249A4.31,4.31,0,0,1,330.8,253.31ZM185.2,40.23a4.12,4.12,0,0,0-4.11,4.12V249a4.11,4.11,0,0,0,4.11,4.11H330.8a4.11,4.11,0,0,0,4.11-4.11V44.35a4.12,4.12,0,0,0-4.11-4.12Z" transform="translate(11 -40.04)"/><polygon class="cls-2" points="292.67 246.43 323.21 246.43 317.04 135.99 298.84 135.99 292.67 246.43"/><rect class="cls-1" x="297.56" y="133.31" width="20.76" height="5.7"/><polygon class="cls-2" points="255.63 246.43 286.18 246.43 280 135.99 261.8 135.99 255.63 246.43"/><rect class="cls-1" x="260.53" y="133.31" width="20.76" height="5.7"/><rect class="cls-3" x="263.05" y="229.06" width="33.21" height="17.37"/><rect class="cls-4" x="226.8" y="229.06" width="33.21" height="17.37"/><rect class="cls-3" x="300.39" y="229.06" width="33.21" height="17.37"/><polygon class="cls-2" points="136.33 195.91 136.33 188.13 117.13 195.91 117.13 188.13 97.92 195.91 97.92 188.13 78.72 195.91 78.72 188.13 55.56 197.51 55.32 197.51 55.32 143.23 43.4 143.23 43.4 246.43 47.9 246.43 55.32 246.43 155.53 246.43 155.53 203.17 155.53 197.51 155.53 188.13 136.33 195.91"/><rect class="cls-3" x="113.19" y="218.39" width="58.3" height="28.04"/><path class="cls-3" d="M93.9,257.86H84.24a2.54,2.54,0,0,0-2.5,2.58v19.63a2.56,2.56,0,0,0,1.9,2.49v3.92h1.6v-3.84h3v3.84h1.6v-3.84h3v3.84h1.6v-3.92a2.55,2.55,0,0,0,1.9-2.49V260.44A2.54,2.54,0,0,0,93.9,257.86Z" transform="translate(11 -40.04)"/><path class="cls-3" d="M76.07,257.86H66.41a2.54,2.54,0,0,0-2.49,2.58v19.63a2.55,2.55,0,0,0,1.9,2.49v3.92h1.59v-3.84h3v3.84H72v-3.84h3v3.84h1.6v-3.92a2.55,2.55,0,0,0,1.9-2.49V260.44A2.54,2.54,0,0,0,76.07,257.86Z" transform="translate(11 -40.04)"/><path class="cls-3" d="M58.24,257.86H48.58a2.54,2.54,0,0,0-2.49,2.58v19.63a2.55,2.55,0,0,0,1.9,2.49v3.92h1.59v-3.84h3v3.84h1.59v-3.84h3v3.84h1.6v-3.92a2.55,2.55,0,0,0,1.9-2.49V260.44A2.54,2.54,0,0,0,58.24,257.86Z" transform="translate(11 -40.04)"/><path class="cls-4" d="M47.14,156.73c-.14-2.87,5.93-4.06,7.09-1.67s-1.16,4.17-1.16,4.17,3.48,1.43.58,3.63-4,0-4,0-3.33,3.08-4.2,1.89.87-2.12.87-2.12A2.19,2.19,0,0,1,43.86,160,3.94,3.94,0,0,1,47.14,156.73Z" transform="translate(11 -40.04)"/><path class="cls-4" d="M38.34,170.1c-.07-1.43,3-2,3.55-.84a1.77,1.77,0,0,1-.58,2.09s1.74.72.29,1.81-2,0-2,0-1.66,1.55-2.1,1,.44-1.06.44-1.06a1.1,1.1,0,0,1-1.21-1.33A2,2,0,0,1,38.34,170.1Z" transform="translate(11 -40.04)"/><path class="cls-4" d="M37.16,140.22c-.2-4.12,8.52-5.83,10.18-2.41s-1.66,6-1.66,6,5,2.05.83,5.2-5.81,0-5.81,0-4.78,4.43-6,2.72,1.25-3,1.25-3-4,.26-3.46-3.8S37.16,140.22,37.16,140.22Z" transform="translate(11 -40.04)"/><path class="cls-4" d="M263.44,148.57c-.14-2.87,5.93-4.06,7.09-1.67s-1.16,4.17-1.16,4.17,3.48,1.44.58,3.63-4.05,0-4.05,0-3.33,3.08-4.2,1.89.87-2.12.87-2.12a2.19,2.19,0,0,1-2.41-2.65A4,4,0,0,1,263.44,148.57Z" transform="translate(11 -40.04)"/><path class="cls-4" d="M254.64,161.94c-.07-1.43,3-2,3.55-.84a1.77,1.77,0,0,1-.58,2.09s1.74.72.29,1.81-2,0-2,0-1.66,1.55-2.1.95.44-1.06.44-1.06a1.1,1.1,0,0,1-1.21-1.32A2,2,0,0,1,254.64,161.94Z" transform="translate(11 -40.04)"/><path class="cls-4" d="M253.46,132.06c-.2-4.12,8.52-5.83,10.18-2.41s-1.66,6-1.66,6,5,2,.83,5.2-5.81,0-5.81,0-4.78,4.43-6,2.72,1.25-3,1.25-3-4,.27-3.46-3.8S253.46,132.06,253.46,132.06Z" transform="translate(11 -40.04)"/><path class="cls-4" d="M303.77,150.82c-.15-2.87,5.93-4.06,7.09-1.68s-1.16,4.18-1.16,4.18,3.47,1.43.58,3.62-4,0-4,0-3.33,3.09-4.2,1.9.87-2.13.87-2.13a2.18,2.18,0,0,1-2.41-2.65A3.93,3.93,0,0,1,303.77,150.82Z" transform="translate(11 -40.04)"/><path class="cls-4" d="M295,164.19c-.07-1.44,3-2,3.54-.84a1.78,1.78,0,0,1-.58,2.09s1.74.71.29,1.81-2,0-2,0-1.67,1.54-2.1.95.43-1.06.43-1.06a1.09,1.09,0,0,1-1.2-1.33A2,2,0,0,1,295,164.19Z" transform="translate(11 -40.04)"/><path class="cls-4" d="M293.79,134.3c-.21-4.11,8.52-5.83,10.18-2.4s-1.66,6-1.66,6,5,2.06.83,5.21-5.82,0-5.82,0-4.78,4.43-6,2.71,1.24-3,1.24-3-4,.26-3.46-3.81S293.79,134.3,293.79,134.3Z" transform="translate(11 -40.04)"/><polygon class="cls-3" points="256.29 208.32 256.29 190.17 251.66 190.17 251.66 127.04 244.98 127.04 244.98 118.89 230.72 112.03 230.72 103.82 228.74 103.82 228.74 127.04 225.98 127.04 225.98 190.17 223.21 190.17 223.21 156.97 215.7 156.97 215.7 139.87 213.61 139.87 213.61 190.17 207.91 190.17 207.91 171.02 204.15 171.02 204.15 166.14 195.46 166.14 195.46 149.44 190.7 149.44 190.7 137.63 184.84 137.63 184.84 120.42 182.76 120.42 182.76 137.63 176.9 137.63 176.9 149.44 172.14 149.44 172.14 166.14 163.45 166.14 163.45 171.02 159.69 171.02 159.69 190.17 155.24 190.17 155.24 166.14 146.55 166.14 146.55 114.41 143.78 114.41 143.78 108.71 125.21 108.71 125.21 114.41 121.26 114.41 121.26 151.88 105.45 151.88 105.45 155.55 99.52 155.55 99.52 158.4 105.45 158.4 105.45 173.06 95.83 173.06 95.83 173.16 80.57 173.16 80.57 246.43 259.45 246.43 259.45 208.32 256.29 208.32"/><rect class="cls-2" x="84" y="176.77" width="2.24" height="2.31"/><rect class="cls-2" x="84" y="180.64" width="2.24" height="2.31"/><rect class="cls-2" x="124.04" y="116.42" width="2.24" height="2.31"/><rect class="cls-2" x="124.04" y="120.29" width="2.24" height="2.31"/><rect class="cls-2" x="124.04" y="124.16" width="2.24" height="2.31"/><rect class="cls-2" x="124.04" y="128.03" width="2.24" height="2.31"/><rect class="cls-2" x="124.04" y="131.9" width="2.24" height="2.31"/><rect class="cls-2" x="124.04" y="135.77" width="2.24" height="2.31"/><rect class="cls-2" x="124.04" y="139.64" width="2.24" height="2.31"/><rect class="cls-2" x="124.04" y="143.51" width="2.24" height="2.31"/><rect class="cls-2" x="124.04" y="155.12" width="2.24" height="2.31"/><rect class="cls-2" x="124.04" y="158.99" width="2.24" height="2.31"/><rect class="cls-2" x="127.6" y="116.42" width="2.24" height="2.31"/><rect class="cls-2" x="127.6" y="120.29" width="2.24" height="2.31"/><rect class="cls-2" x="127.6" y="124.16" width="2.24" height="2.31"/><rect class="cls-2" x="127.6" y="128.03" width="2.24" height="2.31"/><rect class="cls-2" x="127.6" y="131.9" width="2.24" height="2.31"/><rect class="cls-2" x="127.6" y="135.77" width="2.24" height="2.31"/><rect class="cls-2" x="127.6" y="139.64" width="2.24" height="2.31"/><rect class="cls-2" x="127.6" y="143.51" width="2.24" height="2.31"/><rect class="cls-2" x="127.6" y="158.99" width="2.24" height="2.31"/><rect class="cls-2" x="131.16" y="116.42" width="2.24" height="2.31"/><rect class="cls-2" x="131.16" y="120.29" width="2.24" height="2.31"/><rect class="cls-2" x="131.16" y="124.16" width="2.24" height="2.31"/><rect class="cls-2" x="131.16" y="128.03" width="2.24" height="2.31"/><rect class="cls-2" x="131.16" y="131.9" width="2.24" height="2.31"/><rect class="cls-2" x="131.16" y="135.77" width="2.24" height="2.31"/><rect class="cls-2" x="131.16" y="139.64" width="2.24" height="2.31"/><rect class="cls-2" x="131.16" y="143.51" width="2.24" height="2.31"/><rect class="cls-2" x="134.71" y="116.42" width="2.24" height="2.31"/><rect class="cls-2" x="134.71" y="120.29" width="2.24" height="2.31"/><rect class="cls-2" x="134.71" y="124.16" width="2.24" height="2.31"/><rect class="cls-2" x="134.71" y="128.03" width="2.24" height="2.31"/><rect class="cls-2" x="134.71" y="131.9" width="2.24" height="2.31"/><rect class="cls-2" x="134.71" y="135.77" width="2.24" height="2.31"/><rect class="cls-2" x="134.71" y="143.51" width="2.24" height="2.31"/><rect class="cls-2" x="134.71" y="147.38" width="2.24" height="2.31"/><rect class="cls-2" x="134.71" y="158.99" width="2.24" height="2.31"/><rect class="cls-2" x="134.71" y="162.85" width="2.24" height="2.31"/><rect class="cls-2" x="134.71" y="166.72" width="2.24" height="2.31"/><rect class="cls-2" x="134.71" y="170.59" width="2.24" height="2.31"/><rect class="cls-2" x="134.71" y="174.46" width="2.24" height="2.31"/><rect class="cls-2" x="134.71" y="178.33" width="2.24" height="2.31"/><rect class="cls-2" x="134.71" y="182.2" width="2.24" height="2.31"/><rect class="cls-2" x="138.27" y="116.42" width="2.24" height="2.31"/><rect class="cls-2" x="138.27" y="120.29" width="2.24" height="2.31"/><rect class="cls-2" x="138.27" y="124.16" width="2.24" height="2.31"/><rect class="cls-2" x="138.27" y="128.03" width="2.24" height="2.31"/><rect class="cls-2" x="138.27" y="131.9" width="2.24" height="2.31"/><rect class="cls-2" x="138.27" y="135.77" width="2.24" height="2.31"/><rect class="cls-2" x="138.27" y="147.38" width="2.24" height="2.31"/><rect class="cls-2" x="138.27" y="151.25" width="2.24" height="2.31"/><rect class="cls-2" x="138.27" y="155.12" width="2.24" height="2.31"/><rect class="cls-2" x="138.27" y="158.99" width="2.24" height="2.31"/><rect class="cls-2" x="138.27" y="162.85" width="2.24" height="2.31"/><rect class="cls-2" x="138.27" y="166.72" width="2.24" height="2.31"/><rect class="cls-2" x="138.27" y="170.59" width="2.24" height="2.31"/><rect class="cls-2" x="138.27" y="174.46" width="2.24" height="2.31"/><rect class="cls-2" x="138.27" y="178.33" width="2.24" height="2.31"/><rect class="cls-2" x="138.27" y="182.2" width="2.24" height="2.31"/><rect class="cls-2" x="138.27" y="186.07" width="2.24" height="2.31"/><rect class="cls-2" x="138.27" y="193.81" width="2.24" height="2.31"/><rect class="cls-2" x="141.83" y="116.42" width="2.24" height="2.31"/><rect class="cls-2" x="141.83" y="120.29" width="2.24" height="2.31"/><rect class="cls-2" x="141.83" y="124.16" width="2.24" height="2.31"/><rect class="cls-2" x="141.83" y="128.03" width="2.24" height="2.31"/><rect class="cls-2" x="141.83" y="131.9" width="2.24" height="2.31"/><rect class="cls-2" x="141.83" y="135.77" width="2.24" height="2.31"/><rect class="cls-2" x="141.83" y="147.38" width="2.24" height="2.31"/><rect class="cls-2" x="141.83" y="151.25" width="2.24" height="2.31"/><rect class="cls-2" x="141.83" y="155.12" width="2.24" height="2.31"/><rect class="cls-2" x="141.83" y="158.99" width="2.24" height="2.31"/><rect class="cls-2" x="141.83" y="170.59" width="2.24" height="2.31"/><rect class="cls-2" x="141.83" y="174.46" width="2.24" height="2.31"/><rect class="cls-2" x="141.83" y="178.33" width="2.24" height="2.31"/><rect class="cls-2" x="141.83" y="182.2" width="2.24" height="2.31"/><rect class="cls-2" x="141.83" y="186.07" width="2.24" height="2.31"/><rect class="cls-2" x="141.83" y="193.81" width="2.24" height="2.31"/><rect class="cls-2" x="141.83" y="197.68" width="2.24" height="2.31"/><rect class="cls-2" x="174.1" y="152.4" width="2.24" height="2.31"/><rect class="cls-2" x="174.1" y="156.27" width="2.24" height="2.31"/><rect class="cls-2" x="174.1" y="160.14" width="2.24" height="2.31"/><rect class="cls-2" x="174.1" y="164.01" width="2.24" height="2.31"/><rect class="cls-2" x="174.1" y="167.88" width="2.24" height="2.31"/><rect class="cls-2" x="174.1" y="171.75" width="2.24" height="2.31"/><rect class="cls-2" x="174.1" y="175.62" width="2.24" height="2.31"/><rect class="cls-2" x="174.1" y="187.22" width="2.24" height="2.31"/><rect class="cls-2" x="174.1" y="191.09" width="2.24" height="2.31"/><rect class="cls-2" x="174.1" y="194.96" width="2.24" height="2.31"/><rect class="cls-2" x="177.66" y="152.4" width="2.24" height="2.31"/><rect class="cls-2" x="177.66" y="156.27" width="2.24" height="2.31"/><rect class="cls-2" x="177.66" y="160.14" width="2.24" height="2.31"/><rect class="cls-2" x="177.66" y="164.01" width="2.24" height="2.31"/><rect class="cls-2" x="177.66" y="167.88" width="2.24" height="2.31"/><rect class="cls-2" x="177.66" y="171.75" width="2.24" height="2.31"/><rect class="cls-2" x="177.66" y="175.62" width="2.24" height="2.31"/><rect class="cls-2" x="181.21" y="152.4" width="2.24" height="2.31"/><rect class="cls-2" x="181.21" y="156.27" width="2.24" height="2.31"/><rect class="cls-2" x="181.21" y="160.14" width="2.24" height="2.31"/><rect class="cls-2" x="181.21" y="164.01" width="2.24" height="2.31"/><rect class="cls-2" x="181.21" y="167.88" width="2.24" height="2.31"/><rect class="cls-2" x="181.21" y="171.75" width="2.24" height="2.31"/><rect class="cls-2" x="181.21" y="175.62" width="2.24" height="2.31"/><rect class="cls-2" x="184.77" y="152.4" width="2.24" height="2.31"/><rect class="cls-2" x="184.77" y="156.27" width="2.24" height="2.31"/><rect class="cls-2" x="184.77" y="160.14" width="2.24" height="2.31"/><rect class="cls-2" x="184.77" y="164.01" width="2.24" height="2.31"/><rect class="cls-2" x="184.77" y="167.88" width="2.24" height="2.31"/><rect class="cls-2" x="184.77" y="171.75" width="2.24" height="2.31"/><rect class="cls-2" x="184.77" y="175.62" width="2.24" height="2.31"/><rect class="cls-2" x="184.77" y="179.49" width="2.24" height="2.31"/><rect class="cls-2" x="184.77" y="183.35" width="2.24" height="2.31"/><rect class="cls-2" x="184.77" y="187.22" width="2.24" height="2.31"/><rect class="cls-2" x="184.77" y="191.09" width="2.24" height="2.31"/><rect class="cls-2" x="188.33" y="152.4" width="2.24" height="2.31"/><rect class="cls-2" x="188.33" y="156.27" width="2.24" height="2.31"/><rect class="cls-2" x="188.33" y="160.14" width="2.24" height="2.31"/><rect class="cls-2" x="188.33" y="164.01" width="2.24" height="2.31"/><rect class="cls-2" x="188.33" y="167.88" width="2.24" height="2.31"/><rect class="cls-2" x="188.33" y="171.75" width="2.24" height="2.31"/><rect class="cls-2" x="188.33" y="175.62" width="2.24" height="2.31"/><rect class="cls-2" x="188.33" y="179.49" width="2.24" height="2.31"/><rect class="cls-2" x="188.33" y="183.35" width="2.24" height="2.31"/><rect class="cls-2" x="188.33" y="187.22" width="2.24" height="2.31"/><rect class="cls-2" x="188.33" y="191.09" width="2.24" height="2.31"/><rect class="cls-2" x="188.33" y="194.96" width="2.24" height="2.31"/><rect class="cls-2" x="188.33" y="206.57" width="2.24" height="2.31"/><rect class="cls-2" x="188.33" y="210.44" width="2.24" height="2.31"/><rect class="cls-2" x="191.88" y="152.4" width="2.24" height="2.31"/><rect class="cls-2" x="191.88" y="156.27" width="2.24" height="2.31"/><rect class="cls-2" x="191.88" y="160.14" width="2.24" height="2.31"/><rect class="cls-2" x="191.88" y="171.75" width="2.24" height="2.31"/><rect class="cls-2" x="191.88" y="175.62" width="2.24" height="2.31"/><rect class="cls-2" x="191.88" y="179.49" width="2.24" height="2.31"/><rect class="cls-2" x="191.88" y="183.35" width="2.24" height="2.31"/><rect class="cls-2" x="191.88" y="187.22" width="2.24" height="2.31"/><rect class="cls-2" x="191.88" y="191.09" width="2.24" height="2.31"/><rect class="cls-2" x="191.88" y="194.96" width="2.24" height="2.31"/><rect class="cls-2" x="191.88" y="206.57" width="2.24" height="2.31"/><rect class="cls-2" x="191.88" y="210.44" width="2.24" height="2.31"/><rect class="cls-2" x="191.88" y="214.31" width="2.24" height="2.31"/><rect class="cls-2" x="229.16" y="129.19" width="2.24" height="2.31"/><rect class="cls-2" x="229.16" y="133.05" width="2.24" height="2.31"/><rect class="cls-2" x="229.16" y="136.92" width="2.24" height="2.31"/><rect class="cls-2" x="229.16" y="140.79" width="2.24" height="2.31"/><rect class="cls-2" x="229.16" y="144.66" width="2.24" height="2.31"/><rect class="cls-2" x="229.16" y="148.53" width="2.24" height="2.31"/><rect class="cls-2" x="229.16" y="152.4" width="2.24" height="2.31"/><rect class="cls-2" x="229.16" y="156.27" width="2.24" height="2.31"/><rect class="cls-2" x="229.16" y="160.14" width="2.24" height="2.31"/><rect class="cls-2" x="229.16" y="164.01" width="2.24" height="2.31"/><rect class="cls-2" x="229.16" y="167.88" width="2.24" height="2.31"/><rect class="cls-2" x="229.16" y="171.75" width="2.24" height="2.31"/><rect class="cls-2" x="229.16" y="175.62" width="2.24" height="2.31"/><rect class="cls-2" x="229.16" y="179.49" width="2.24" height="2.31"/><rect class="cls-2" x="229.16" y="183.35" width="2.24" height="2.31"/><rect class="cls-2" x="229.16" y="187.22" width="2.24" height="2.31"/><rect class="cls-2" x="229.16" y="191.09" width="2.24" height="2.31"/><rect class="cls-2" x="229.16" y="194.96" width="2.24" height="2.31"/><rect class="cls-2" x="229.16" y="198.83" width="2.24" height="2.31"/><rect class="cls-2" x="229.16" y="202.7" width="2.24" height="2.31"/><rect class="cls-2" x="229.16" y="206.57" width="2.24" height="2.31"/><rect class="cls-2" x="229.16" y="210.44" width="2.24" height="2.31"/><rect class="cls-2" x="229.16" y="214.31" width="2.24" height="2.31"/><rect class="cls-2" x="232.72" y="129.19" width="2.24" height="2.31"/><rect class="cls-2" x="232.72" y="133.05" width="2.24" height="2.31"/><rect class="cls-2" x="232.72" y="136.92" width="2.24" height="2.31"/><rect class="cls-2" x="232.72" y="140.79" width="2.24" height="2.31"/><rect class="cls-2" x="232.72" y="144.66" width="2.24" height="2.31"/><rect class="cls-2" x="232.72" y="148.53" width="2.24" height="2.31"/><rect class="cls-2" x="232.72" y="152.4" width="2.24" height="2.31"/><rect class="cls-2" x="232.72" y="156.27" width="2.24" height="2.31"/><rect class="cls-2" x="232.72" y="160.14" width="2.24" height="2.31"/><rect class="cls-2" x="232.72" y="164.01" width="2.24" height="2.31"/><rect class="cls-2" x="232.72" y="167.88" width="2.24" height="2.31"/><rect class="cls-2" x="232.72" y="171.75" width="2.24" height="2.31"/><rect class="cls-2" x="232.72" y="175.62" width="2.24" height="2.31"/><rect class="cls-2" x="232.72" y="179.49" width="2.24" height="2.31"/><rect class="cls-2" x="232.72" y="183.35" width="2.24" height="2.31"/><rect class="cls-2" x="232.72" y="187.22" width="2.24" height="2.31"/><rect class="cls-2" x="232.72" y="191.09" width="2.24" height="2.31"/><rect class="cls-2" x="232.72" y="194.96" width="2.24" height="2.31"/><rect class="cls-2" x="232.72" y="198.83" width="2.24" height="2.31"/><rect class="cls-2" x="236.27" y="129.19" width="2.24" height="2.31"/><rect class="cls-2" x="236.27" y="133.05" width="2.24" height="2.31"/><rect class="cls-2" x="236.27" y="136.92" width="2.24" height="2.31"/><rect class="cls-2" x="236.27" y="140.79" width="2.24" height="2.31"/><rect class="cls-2" x="236.27" y="144.66" width="2.24" height="2.31"/><rect class="cls-2" x="236.27" y="148.53" width="2.24" height="2.31"/><rect class="cls-2" x="236.27" y="152.4" width="2.24" height="2.31"/><rect class="cls-2" x="236.27" y="156.27" width="2.24" height="2.31"/><rect class="cls-2" x="236.27" y="160.14" width="2.24" height="2.31"/><rect class="cls-2" x="236.27" y="164.01" width="2.24" height="2.31"/><rect class="cls-2" x="236.27" y="167.88" width="2.24" height="2.31"/><rect class="cls-2" x="236.27" y="171.75" width="2.24" height="2.31"/><rect class="cls-2" x="236.27" y="175.62" width="2.24" height="2.31"/><rect class="cls-2" x="236.27" y="179.49" width="2.24" height="2.31"/><rect class="cls-2" x="236.27" y="183.35" width="2.24" height="2.31"/><rect class="cls-2" x="236.27" y="187.22" width="2.24" height="2.31"/><rect class="cls-2" x="236.27" y="191.09" width="2.24" height="2.31"/><rect class="cls-2" x="236.27" y="194.96" width="2.24" height="2.31"/><rect class="cls-2" x="236.27" y="198.83" width="2.24" height="2.31"/><rect class="cls-2" x="239.83" y="129.19" width="2.24" height="2.31"/><rect class="cls-2" x="239.83" y="133.05" width="2.24" height="2.31"/><rect class="cls-2" x="239.83" y="136.92" width="2.24" height="2.31"/><rect class="cls-2" x="239.83" y="140.79" width="2.24" height="2.31"/><rect class="cls-2" x="239.83" y="144.66" width="2.24" height="2.31"/><rect class="cls-2" x="239.83" y="148.53" width="2.24" height="2.31"/><rect class="cls-2" x="239.83" y="152.4" width="2.24" height="2.31"/><rect class="cls-2" x="239.83" y="156.27" width="2.24" height="2.31"/><rect class="cls-2" x="239.83" y="160.14" width="2.24" height="2.31"/><rect class="cls-2" x="239.83" y="164.01" width="2.24" height="2.31"/><rect class="cls-2" x="239.83" y="167.88" width="2.24" height="2.31"/><rect class="cls-2" x="239.83" y="171.75" width="2.24" height="2.31"/><rect class="cls-2" x="239.83" y="175.62" width="2.24" height="2.31"/><rect class="cls-2" x="239.83" y="179.49" width="2.24" height="2.31"/><rect class="cls-2" x="239.83" y="183.35" width="2.24" height="2.31"/><rect class="cls-2" x="243.39" y="129.19" width="2.24" height="2.31"/><rect class="cls-2" x="243.39" y="133.05" width="2.24" height="2.31"/><rect class="cls-2" x="243.39" y="136.92" width="2.24" height="2.31"/><rect class="cls-2" x="243.39" y="140.79" width="2.24" height="2.31"/><rect class="cls-2" x="243.39" y="144.66" width="2.24" height="2.31"/><rect class="cls-2" x="243.39" y="148.53" width="2.24" height="2.31"/><rect class="cls-2" x="243.39" y="152.4" width="2.24" height="2.31"/><rect class="cls-2" x="243.39" y="156.27" width="2.24" height="2.31"/><rect class="cls-2" x="243.39" y="160.14" width="2.24" height="2.31"/><rect class="cls-2" x="243.39" y="164.01" width="2.24" height="2.31"/><rect class="cls-2" x="243.39" y="167.88" width="2.24" height="2.31"/><rect class="cls-2" x="243.39" y="171.75" width="2.24" height="2.31"/><rect class="cls-2" x="243.39" y="175.62" width="2.24" height="2.31"/><rect class="cls-2" x="246.94" y="129.19" width="2.24" height="2.31"/><rect class="cls-2" x="246.94" y="133.05" width="2.24" height="2.31"/><rect class="cls-2" x="246.94" y="136.92" width="2.24" height="2.31"/><rect class="cls-2" x="246.94" y="140.79" width="2.24" height="2.31"/><rect class="cls-2" x="246.94" y="144.66" width="2.24" height="2.31"/><rect class="cls-2" x="246.94" y="148.53" width="2.24" height="2.31"/><rect class="cls-2" x="246.94" y="152.4" width="2.24" height="2.31"/><rect class="cls-2" x="246.94" y="156.27" width="2.24" height="2.31"/><rect class="cls-2" x="246.94" y="160.14" width="2.24" height="2.31"/><rect class="cls-2" x="246.94" y="164.01" width="2.24" height="2.31"/><rect class="cls-2" x="246.94" y="167.88" width="2.24" height="2.31"/><rect class="cls-2" x="246.94" y="171.75" width="2.24" height="2.31"/><rect class="cls-2" x="108.5" y="155.12" width="2.24" height="2.31"/><rect class="cls-2" x="108.5" y="158.99" width="2.24" height="2.31"/><rect class="cls-2" x="108.5" y="162.85" width="2.24" height="2.31"/><rect class="cls-2" x="108.5" y="166.72" width="2.24" height="2.31"/><rect class="cls-2" x="108.5" y="170.59" width="2.24" height="2.31"/><rect class="cls-2" x="108.5" y="174.46" width="2.24" height="2.31"/><rect class="cls-2" x="108.5" y="178.33" width="2.24" height="2.31"/><rect class="cls-2" x="108.5" y="182.2" width="2.24" height="2.31"/><rect class="cls-2" x="108.5" y="186.07" width="2.24" height="2.31"/><rect class="cls-2" x="108.5" y="189.94" width="2.24" height="2.31"/><rect class="cls-2" x="108.5" y="193.81" width="2.24" height="2.31"/><rect class="cls-2" x="108.5" y="197.68" width="2.24" height="2.31"/><rect class="cls-2" x="108.5" y="201.55" width="2.24" height="2.31"/><rect class="cls-2" x="108.5" y="209.29" width="2.24" height="2.31"/><rect class="cls-2" x="108.5" y="213.15" width="2.24" height="2.31"/><rect class="cls-2" x="108.5" y="217.02" width="2.24" height="2.31"/><rect class="cls-2" x="108.5" y="220.89" width="2.24" height="2.31"/><rect class="cls-2" x="108.5" y="228.63" width="2.24" height="2.31"/><rect class="cls-2" x="108.5" y="232.5" width="2.24" height="2.31"/><rect class="cls-2" x="108.5" y="236.37" width="2.24" height="2.31"/><rect class="cls-2" x="112.06" y="155.12" width="2.24" height="2.31"/><rect class="cls-2" x="112.06" y="158.99" width="2.24" height="2.31"/><rect class="cls-2" x="112.06" y="162.85" width="2.24" height="2.31"/><rect class="cls-2" x="112.06" y="166.72" width="2.24" height="2.31"/><rect class="cls-2" x="112.06" y="170.59" width="2.24" height="2.31"/><rect class="cls-2" x="112.06" y="174.46" width="2.24" height="2.31"/><rect class="cls-2" x="112.06" y="178.33" width="2.24" height="2.31"/><rect class="cls-2" x="112.06" y="182.2" width="2.24" height="2.31"/><rect class="cls-2" x="112.06" y="186.07" width="2.24" height="2.31"/><rect class="cls-2" x="112.06" y="189.94" width="2.24" height="2.31"/><rect class="cls-2" x="112.06" y="193.81" width="2.24" height="2.31"/><rect class="cls-2" x="112.06" y="197.68" width="2.24" height="2.31"/><rect class="cls-2" x="112.06" y="201.55" width="2.24" height="2.31"/><rect class="cls-2" x="112.06" y="213.15" width="2.24" height="2.31"/><rect class="cls-2" x="112.06" y="217.02" width="2.24" height="2.31"/><rect class="cls-2" x="112.06" y="224.76" width="2.24" height="2.31"/><rect class="cls-2" x="112.06" y="228.63" width="2.24" height="2.31"/><rect class="cls-2" x="112.06" y="232.5" width="2.24" height="2.31"/><rect class="cls-2" x="112.06" y="236.37" width="2.24" height="2.31"/><rect class="cls-2" x="115.61" y="155.12" width="2.24" height="2.31"/><rect class="cls-2" x="115.61" y="158.99" width="2.24" height="2.31"/><rect class="cls-2" x="115.61" y="162.85" width="2.24" height="2.31"/><rect class="cls-2" x="115.61" y="166.72" width="2.24" height="2.31"/><rect class="cls-2" x="115.61" y="170.59" width="2.24" height="2.31"/><rect class="cls-2" x="115.61" y="174.46" width="2.24" height="2.31"/><rect class="cls-2" x="115.61" y="178.33" width="2.24" height="2.31"/><rect class="cls-2" x="115.61" y="182.2" width="2.24" height="2.31"/><rect class="cls-2" x="115.61" y="186.07" width="2.24" height="2.31"/><rect class="cls-2" x="115.61" y="189.94" width="2.24" height="2.31"/><rect class="cls-2" x="115.61" y="193.81" width="2.24" height="2.31"/><rect class="cls-2" x="115.61" y="197.68" width="2.24" height="2.31"/><rect class="cls-2" x="115.61" y="201.55" width="2.24" height="2.31"/><rect class="cls-2" x="115.61" y="205.42" width="2.24" height="2.31"/><rect class="cls-2" x="115.61" y="213.15" width="2.24" height="2.31"/><rect class="cls-2" x="115.61" y="220.89" width="2.24" height="2.31"/><rect class="cls-2" x="115.61" y="224.76" width="2.24" height="2.31"/><rect class="cls-2" x="115.61" y="228.63" width="2.24" height="2.31"/><rect class="cls-2" x="115.61" y="232.5" width="2.24" height="2.31"/><rect class="cls-2" x="115.61" y="236.37" width="2.24" height="2.31"/><rect class="cls-2" x="94.01" y="177.18" width="2.24" height="2.31"/><rect class="cls-2" x="94.01" y="181.05" width="2.24" height="2.31"/><rect class="cls-2" x="94.01" y="184.92" width="2.24" height="2.31"/><rect class="cls-2" x="94.01" y="188.79" width="2.24" height="2.31"/><rect class="cls-2" x="94.01" y="192.65" width="2.24" height="2.31"/><rect class="cls-2" x="94.01" y="196.52" width="2.24" height="2.31"/><rect class="cls-2" x="94.01" y="208.13" width="2.24" height="2.31"/><rect class="cls-2" x="94.01" y="212" width="2.24" height="2.31"/><rect class="cls-2" x="94.01" y="215.87" width="2.24" height="2.31"/><rect class="cls-2" x="94.01" y="219.74" width="2.24" height="2.31"/><rect class="cls-2" x="94.01" y="223.61" width="2.24" height="2.31"/><rect class="cls-2" x="94.01" y="227.48" width="2.24" height="2.31"/><rect class="cls-2" x="94.01" y="231.35" width="2.24" height="2.31"/><rect class="cls-2" x="97.57" y="177.18" width="2.24" height="2.31"/><rect class="cls-2" x="97.57" y="181.05" width="2.24" height="2.31"/><rect class="cls-2" x="97.57" y="184.92" width="2.24" height="2.31"/><rect class="cls-2" x="97.57" y="188.79" width="2.24" height="2.31"/><rect class="cls-2" x="97.57" y="192.65" width="2.24" height="2.31"/><rect class="cls-2" x="97.57" y="196.52" width="2.24" height="2.31"/><rect class="cls-2" x="97.57" y="208.13" width="2.24" height="2.31"/><rect class="cls-2" x="97.57" y="212" width="2.24" height="2.31"/><rect class="cls-2" x="97.57" y="215.87" width="2.24" height="2.31"/><rect class="cls-2" x="97.57" y="219.74" width="2.24" height="2.31"/><rect class="cls-2" x="97.57" y="223.61" width="2.24" height="2.31"/><rect class="cls-2" x="97.57" y="227.48" width="2.24" height="2.31"/><rect class="cls-2" x="97.57" y="235.22" width="2.24" height="2.31"/><rect class="cls-2" x="215.72" y="160.14" width="2.24" height="2.31"/><rect class="cls-2" x="215.72" y="164.01" width="2.24" height="2.31"/><rect class="cls-2" x="215.72" y="167.88" width="2.24" height="2.31"/><rect class="cls-2" x="215.72" y="171.75" width="2.24" height="2.31"/><rect class="cls-2" x="215.72" y="175.62" width="2.24" height="2.31"/><rect class="cls-2" x="215.72" y="179.49" width="2.24" height="2.31"/><rect class="cls-2" x="215.72" y="183.35" width="2.24" height="2.31"/><rect class="cls-2" x="215.72" y="187.22" width="2.24" height="2.31"/><rect class="cls-2" x="215.72" y="191.09" width="2.24" height="2.31"/><rect class="cls-2" x="215.72" y="194.96" width="2.24" height="2.31"/><rect class="cls-2" x="215.72" y="198.83" width="2.24" height="2.31"/><rect class="cls-2" x="215.72" y="206.57" width="2.24" height="2.31"/><rect class="cls-2" x="215.72" y="210.44" width="2.24" height="2.31"/><rect class="cls-2" x="215.72" y="214.31" width="2.24" height="2.31"/><rect class="cls-2" x="215.72" y="218.18" width="2.24" height="2.31"/><rect class="cls-2" x="215.72" y="222.05" width="2.24" height="2.31"/><rect class="cls-2" x="215.72" y="225.92" width="2.24" height="2.31"/><rect class="cls-2" x="215.72" y="229.79" width="2.24" height="2.31"/><rect class="cls-2" x="215.72" y="233.66" width="2.24" height="2.31"/><rect class="cls-2" x="219.28" y="160.14" width="2.24" height="2.31"/><rect class="cls-2" x="219.28" y="164.01" width="2.24" height="2.31"/><rect class="cls-2" x="219.28" y="167.88" width="2.24" height="2.31"/><rect class="cls-2" x="219.28" y="171.75" width="2.24" height="2.31"/><rect class="cls-2" x="219.28" y="175.62" width="2.24" height="2.31"/><rect class="cls-2" x="219.28" y="179.49" width="2.24" height="2.31"/><rect class="cls-2" x="219.28" y="183.35" width="2.24" height="2.31"/><rect class="cls-2" x="219.28" y="187.22" width="2.24" height="2.31"/><rect class="cls-2" x="219.28" y="191.09" width="2.24" height="2.31"/><rect class="cls-2" x="219.28" y="194.96" width="2.24" height="2.31"/><rect class="cls-2" x="219.28" y="198.83" width="2.24" height="2.31"/><rect class="cls-2" x="219.28" y="202.7" width="2.24" height="2.31"/><rect class="cls-2" x="219.28" y="206.57" width="2.24" height="2.31"/><rect class="cls-2" x="219.28" y="210.44" width="2.24" height="2.31"/><rect class="cls-2" x="219.28" y="214.31" width="2.24" height="2.31"/><rect class="cls-2" x="219.28" y="218.18" width="2.24" height="2.31"/><rect class="cls-2" x="219.28" y="222.05" width="2.24" height="2.31"/><rect class="cls-2" x="219.28" y="225.92" width="2.24" height="2.31"/><rect class="cls-2" x="219.28" y="229.79" width="2.24" height="2.31"/><rect class="cls-2" x="219.28" y="233.66" width="2.24" height="2.31"/><rect class="cls-2" x="198.2" y="175.21" width="2.24" height="2.31"/><rect class="cls-2" x="198.2" y="179.08" width="2.24" height="2.31"/><rect class="cls-2" x="198.2" y="182.95" width="2.24" height="2.31"/><rect class="cls-2" x="198.2" y="186.82" width="2.24" height="2.31"/><rect class="cls-2" x="198.2" y="190.69" width="2.24" height="2.31"/><rect class="cls-2" x="198.2" y="194.56" width="2.24" height="2.31"/><rect class="cls-2" x="198.2" y="198.42" width="2.24" height="2.31"/><rect class="cls-2" x="198.2" y="202.29" width="2.24" height="2.31"/><rect class="cls-2" x="198.2" y="206.16" width="2.24" height="2.31"/><rect class="cls-2" x="198.2" y="210.03" width="2.24" height="2.31"/><rect class="cls-2" x="201.76" y="175.21" width="2.24" height="2.31"/><rect class="cls-2" x="201.76" y="179.08" width="2.24" height="2.31"/><rect class="cls-2" x="201.76" y="182.95" width="2.24" height="2.31"/><rect class="cls-2" x="201.76" y="186.82" width="2.24" height="2.31"/><rect class="cls-2" x="201.76" y="190.69" width="2.24" height="2.31"/><rect class="cls-2" x="201.76" y="194.56" width="2.24" height="2.31"/><rect class="cls-2" x="201.76" y="198.42" width="2.24" height="2.31"/><rect class="cls-2" x="201.76" y="202.29" width="2.24" height="2.31"/><rect class="cls-2" x="201.76" y="206.16" width="2.24" height="2.31"/><path class="cls-5" d="M82.66,74.89A4.1,4.1,0,0,1,88,70.83a9.25,9.25,0,0,1-.09-1.3,8.85,8.85,0,0,1,8.71-9,8.43,8.43,0,0,1,1.6.15,7.57,7.57,0,0,1,6.51-3.77,7.74,7.74,0,0,1,7.62,7.74h.13a7.24,7.24,0,0,1,0,14.48H86.66A4.18,4.18,0,0,1,82.66,74.89Z" transform="translate(11 -40.04)"/><path class="cls-5" d="M161,116.41a4.18,4.18,0,0,1,4.11-4.24,4.23,4.23,0,0,1,1.19.18,9.25,9.25,0,0,1-.1-1.3,8.86,8.86,0,0,1,8.72-9,8.43,8.43,0,0,1,1.6.15A7.57,7.57,0,0,1,183,98.45a7.75,7.75,0,0,1,7.62,7.74h.12a7.24,7.24,0,0,1,0,14.48H165A4.18,4.18,0,0,1,161,116.41Z" transform="translate(11 -40.04)"/><path class="cls-5" d="M85.12,154.67a4.18,4.18,0,0,1,4.11-4.24,3.83,3.83,0,0,1,1.18.18,9.36,9.36,0,0,1-.09-1.3,8.85,8.85,0,0,1,8.71-9,8.53,8.53,0,0,1,1.61.15,7.57,7.57,0,0,1,6.5-3.77,7.73,7.73,0,0,1,7.62,7.74h.13a7.24,7.24,0,0,1,0,14.47H89.11A4.19,4.19,0,0,1,85.12,154.67Z" transform="translate(11 -40.04)"/><path class="cls-5" d="M278.09,103a2.53,2.53,0,0,1,2.48-2.57,2.46,2.46,0,0,1,.72.11,5,5,0,0,1-.06-.78,5.35,5.35,0,0,1,5.27-5.43,5.15,5.15,0,0,1,1,.09,4.56,4.56,0,0,1,3.93-2.28A4.68,4.68,0,0,1,296,96.82h.07a4.38,4.38,0,0,1,0,8.75H280.5A2.52,2.52,0,0,1,278.09,103Z" transform="translate(11 -40.04)"/><path class="cls-5" d="M41.16,106.14a2.53,2.53,0,0,1,2.49-2.56,2.46,2.46,0,0,1,.72.11,5.16,5.16,0,0,1-.06-.79,5.35,5.35,0,0,1,5.27-5.43,5.23,5.23,0,0,1,1,.1,4.56,4.56,0,0,1,3.93-2.28,4.67,4.67,0,0,1,4.6,4.68h.08a4.38,4.38,0,0,1,0,8.75H43.58A2.52,2.52,0,0,1,41.16,106.14Z" transform="translate(11 -40.04)"/><path class="cls-5" d="M230.43,75.75a2.52,2.52,0,0,1,2.48-2.56,2.46,2.46,0,0,1,.72.11,5.16,5.16,0,0,1-.06-.79,5.35,5.35,0,0,1,5.27-5.43,5.23,5.23,0,0,1,1,.1,4.56,4.56,0,0,1,3.93-2.28,4.67,4.67,0,0,1,4.6,4.68h.08a4.38,4.38,0,0,1,0,8.75H232.84A2.51,2.51,0,0,1,230.43,75.75Z" transform="translate(11 -40.04)"/><path class="cls-6" d="M57.38,252.82c.16,1.11-2.85,1.84-5.3,2.25.2,2,1.54,4,3.39,5.94,2.32-1.31,5.65-3,6.26-2.62s-2.74,2.66-4.86,4A44.54,44.54,0,0,0,61.69,266c1-1,2.26-1.83,3-1.37s.55,2,.17,3.33c2.54,1.48,4.43,2.37,4.43,2.37A51.56,51.56,0,0,0,71,263.15c-.13-.25-.25-.51-.37-.78-.41-.94,0-1.34.66-1.47a24.28,24.28,0,0,0,0-5.18c-2.86-.6-6.34-1.71-5-3.43.79-1,2.23-1.15,3.73-.9a6.11,6.11,0,0,0-.71-1c-5.21-5.74-8.85,0-8.85,0-3-2.52-7.28-1.84-8.2,2.1C53.93,252.1,57.18,251.45,57.38,252.82Z" transform="translate(11 -40.04)"/><path class="cls-7" d="M57.38,252.82c.16,1.11-2.85,1.84-5.3,2.25.2,2,1.54,4,3.39,5.94,2.32-1.31,5.65-3,6.26-2.62s-2.74,2.66-4.86,4A44.54,44.54,0,0,0,61.69,266c1-1,2.26-1.83,3-1.37s.55,2,.17,3.33c2.54,1.48,4.43,2.37,4.43,2.37A51.56,51.56,0,0,0,71,263.15c-.13-.25-.25-.51-.37-.78-.41-.94,0-1.34.66-1.47a24.28,24.28,0,0,0,0-5.18c-2.86-.6-6.34-1.71-5-3.43.79-1,2.23-1.15,3.73-.9a6.11,6.11,0,0,0-.71-1c-5.21-5.74-8.85,0-8.85,0-3-2.52-7.28-1.84-8.2,2.1C53.93,252.1,57.18,251.45,57.38,252.82Z" transform="translate(11 -40.04)"/><path class="cls-6" d="M63.88,295l-.75-.06c0-.39,3.09-38.85-5.54-42.47a2.94,2.94,0,0,0-2.62.06c-3.12,1.62-4.61,8.36-4.63,8.43l-.74-.17c.07-.29,1.59-7.14,5-8.93a3.72,3.72,0,0,1,3.26-.09C67,255.64,64,293.43,63.88,295Z" transform="translate(11 -40.04)"/><path class="cls-6" d="M65,294.2c-.15-1.73-3.68-42.43,2.91-46.75,1.58-1,3-1.25,4.19-.65,3.11,1.57,3.52,8.23,3.53,8.51l-.75,0c0-.06-.4-6.5-3.12-7.88-.94-.47-2.1-.26-3.43.61-6.22,4.08-2.62,45.63-2.58,46Z" transform="translate(11 -40.04)"/><path class="cls-6" d="M66,297.49c0-1.33-1.13-32.48,4.87-35.2a4.18,4.18,0,0,1,3.56,0c4.12,1.81,6.66,9.48,6.77,9.81l-.72.23c0-.08-2.54-7.68-6.35-9.35a3.43,3.43,0,0,0-3,0c-4.6,2.09-4.75,25.61-4.43,34.49Z" transform="translate(11 -40.04)"/><path class="cls-6" d="M64.43,296.06l-.74-.08c1-9.27,3.07-34-.23-36.92a1.29,1.29,0,0,0-1.35-.42c-2.21.85-3.56,8.88-3.89,11.91l-.75-.08c.13-1.16,1.33-11.37,4.37-12.54a2,2,0,0,1,2.12.56C68.23,262.3,64.59,294.69,64.43,296.06Z" transform="translate(11 -40.04)"/><polygon class="cls-8" points="62.85 238.44 89.94 238.44 87.68 268.79 65.11 268.79 62.85 238.44"/><polygon class="cls-9" points="71.08 238.44 71.83 268.79 87.68 268.79 89.94 238.44 71.08 238.44"/><path class="cls-6" d="M55.54,267.35c-.28.74-2.38.16-4-.43a7.67,7.67,0,0,0,0,4.83c1.89,0,4.53.06,4.76.53s-2.59.71-4.35.77A30.46,30.46,0,0,0,53.68,277c1-.25,2-.36,2.31.18s-.34,1.41-1,2.11c1.06,1.78,1.92,3,1.92,3a36.23,36.23,0,0,0,3.5-3.86c0-.2,0-.4,0-.6.07-.72.46-.83.92-.69a18.25,18.25,0,0,0,1.8-3.17c-1.56-1.36-3.33-3.24-1.94-3.85a2.6,2.6,0,0,1,2.61.73,4.59,4.59,0,0,0-.11-.84c-1.24-5.33-5.46-3-5.46-3-1-2.6-3.86-3.64-5.78-1.52C53.66,265.73,55.89,266.44,55.54,267.35Z" transform="translate(11 -40.04)"/><path class="cls-7" d="M55.54,267.35c-.28.74-2.38.16-4-.43a7.67,7.67,0,0,0,0,4.83c1.89,0,4.53.06,4.76.53s-2.59.71-4.35.77A30.46,30.46,0,0,0,53.68,277c1-.25,2-.36,2.31.18s-.34,1.41-1,2.11c1.06,1.78,1.92,3,1.92,3a36.23,36.23,0,0,0,3.5-3.86c0-.2,0-.4,0-.6.07-.72.46-.83.92-.69a18.25,18.25,0,0,0,1.8-3.17c-1.56-1.36-3.33-3.24-1.94-3.85a2.6,2.6,0,0,1,2.61.73,4.59,4.59,0,0,0-.11-.84c-1.24-5.33-5.46-3-5.46-3-1-2.6-3.86-3.64-5.78-1.52C53.66,265.73,55.89,266.44,55.54,267.35Z" transform="translate(11 -40.04)"/><path class="cls-6" d="M75.66,271a9.87,9.87,0,0,0-2.48.52,5.49,5.49,0,0,1-.36-1.8c-.18-5.46,3.73-3.15,5.8-4.76a4.42,4.42,0,0,1,3.46-1.08,6.76,6.76,0,0,0-.47.93.86.86,0,0,0,.66,1.17,2.55,2.55,0,0,0,1.54-.18,3.48,3.48,0,0,0,.39-.28,7.31,7.31,0,0,1,.75,1.83,10.26,10.26,0,0,1,.35,2.34,7.77,7.77,0,0,0-.91.26.84.84,0,0,0-.34,1.29,3.87,3.87,0,0,0,1.13.8,13.2,13.2,0,0,1-.69,2.56l-.28,0-.59.14-.33.12a.89.89,0,0,0-.51.67.86.86,0,0,0,.32.79c.13.09.27.17.41.25a6.09,6.09,0,0,1-2.16,2.18,22.92,22.92,0,0,1-2.3-1.22c.16-.22.32-.43.47-.66a1.33,1.33,0,0,0,.24-.86,1.18,1.18,0,0,0-.45-.77,1.17,1.17,0,0,0-1.63.21c-.18.27-.38.53-.57.78a14.15,14.15,0,0,1-2.78-2.69l.08,0a8.13,8.13,0,0,1,1.54-.26,1.16,1.16,0,1,0-.29-2.3Z" transform="translate(11 -40.04)"/><path class="cls-10" d="M75.66,271a9.87,9.87,0,0,0-2.48.52,5.49,5.49,0,0,1-.36-1.8c-.18-5.46,3.73-3.15,5.8-4.76a4.42,4.42,0,0,1,3.46-1.08,6.76,6.76,0,0,0-.47.93.86.86,0,0,0,.66,1.17,2.55,2.55,0,0,0,1.54-.18,3.48,3.48,0,0,0,.39-.28,7.31,7.31,0,0,1,.75,1.83,10.26,10.26,0,0,1,.35,2.34,7.77,7.77,0,0,0-.91.26.84.84,0,0,0-.34,1.29,3.87,3.87,0,0,0,1.13.8,13.2,13.2,0,0,1-.69,2.56l-.28,0-.59.14-.33.12a.89.89,0,0,0-.51.67.86.86,0,0,0,.32.79c.13.09.27.17.41.25a6.09,6.09,0,0,1-2.16,2.18,22.92,22.92,0,0,1-2.3-1.22c.16-.22.32-.43.47-.66a1.33,1.33,0,0,0,.24-.86,1.18,1.18,0,0,0-.45-.77,1.17,1.17,0,0,0-1.63.21c-.18.27-.38.53-.57.78a14.15,14.15,0,0,1-2.78-2.69l.08,0a8.13,8.13,0,0,1,1.54-.26,1.16,1.16,0,1,0-.29-2.3Z" transform="translate(11 -40.04)"/><path class="cls-6" d="M77.22,252.12a7,7,0,0,1,1.53-.81,3.57,3.57,0,0,0-.6-1.1c-2.3-3-3.35,0-5.14,0a3.06,3.06,0,0,0-2.29.95,6.21,6.21,0,0,1,.66.28.59.59,0,0,1,.16.91,1.69,1.69,0,0,1-.88.58c-.11,0-.22,0-.33,0a5.11,5.11,0,0,0,.41,1.29,7,7,0,0,0,.84,1.38,5.3,5.3,0,0,1,.59-.27.58.58,0,0,1,.75.53,2.51,2.51,0,0,1-.25.91,8.59,8.59,0,0,0,1.49,1.05l.16-.1a3.26,3.26,0,0,1,.38-.18.65.65,0,0,1,.22-.08.57.57,0,0,1,.56.12.6.6,0,0,1,.18.55,2.83,2.83,0,0,1-.11.31,4,4,0,0,0,2.1.2,14.85,14.85,0,0,0,.67-1.65,5.36,5.36,0,0,1-.54-.14.89.89,0,0,1-.5-.35.76.76,0,0,1-.1-.59.75.75,0,0,1,.35-.5.79.79,0,0,1,.6-.11l.64.16a9.6,9.6,0,0,0,.28-2.63l-.06,0a5.68,5.68,0,0,0-.92.54.79.79,0,0,1-.85-1.34Z" transform="translate(11 -40.04)"/><path class="cls-7" d="M77.22,252.12a7,7,0,0,1,1.53-.81,3.57,3.57,0,0,0-.6-1.1c-2.3-3-3.35,0-5.14,0a3.06,3.06,0,0,0-2.29.95,6.21,6.21,0,0,1,.66.28.59.59,0,0,1,.16.91,1.69,1.69,0,0,1-.88.58c-.11,0-.22,0-.33,0a5.11,5.11,0,0,0,.41,1.29,7,7,0,0,0,.84,1.38,5.3,5.3,0,0,1,.59-.27.58.58,0,0,1,.75.53,2.51,2.51,0,0,1-.25.91,8.59,8.59,0,0,0,1.49,1.05l.16-.1a3.26,3.26,0,0,1,.38-.18.65.65,0,0,1,.22-.08.57.57,0,0,1,.56.12.6.6,0,0,1,.18.55,2.83,2.83,0,0,1-.11.31,4,4,0,0,0,2.1.2,14.85,14.85,0,0,0,.67-1.65,5.36,5.36,0,0,1-.54-.14.89.89,0,0,1-.5-.35.76.76,0,0,1-.1-.59.75.75,0,0,1,.35-.5.79.79,0,0,1,.6-.11l.64.16a9.6,9.6,0,0,0,.28-2.63l-.06,0a5.68,5.68,0,0,0-.92.54.79.79,0,0,1-.85-1.34Z" transform="translate(11 -40.04)"/><path class="cls-6" d="M55.15,257.59c-.16,1.11,2.85,1.84,5.3,2.24-.2,2-1.54,4.05-3.39,5.95-2.33-1.31-5.65-3-6.26-2.62s2.73,2.66,4.86,3.95a43,43,0,0,1-4.82,3.65c-1-1-2.26-1.83-3-1.36s-.55,2-.18,3.33c-2.53,1.48-4.42,2.37-4.42,2.37a49.92,49.92,0,0,1-1.69-7.18c.12-.25.25-.51.37-.78.4-.94,0-1.34-.67-1.48a25.57,25.57,0,0,1,0-5.17c2.87-.6,6.35-1.71,5-3.43-.78-1-2.22-1.16-3.72-.9a6.11,6.11,0,0,1,.71-1c5.21-5.74,8.85,0,8.85,0,3-2.53,7.28-1.84,8.2,2.1C58.6,256.87,55.34,256.22,55.15,257.59Z" transform="translate(11 -40.04)"/><path class="cls-10" d="M55.15,257.59c-.16,1.11,2.85,1.84,5.3,2.24-.2,2-1.54,4.05-3.39,5.95-2.33-1.31-5.65-3-6.26-2.62s2.73,2.66,4.86,3.95a43,43,0,0,1-4.82,3.65c-1-1-2.26-1.83-3-1.36s-.55,2-.18,3.33c-2.53,1.48-4.42,2.37-4.42,2.37a49.92,49.92,0,0,1-1.69-7.18c.12-.25.25-.51.37-.78.4-.94,0-1.34-.67-1.48a25.57,25.57,0,0,1,0-5.17c2.87-.6,6.35-1.71,5-3.43-.78-1-2.22-1.16-3.72-.9a6.11,6.11,0,0,1,.71-1c5.21-5.74,8.85,0,8.85,0,3-2.53,7.28-1.84,8.2,2.1C58.6,256.87,55.34,256.22,55.15,257.59Z" transform="translate(11 -40.04)"/><polygon class="cls-6" points="218.21 265.15 218.21 174.95 214.13 174.95 214.13 265.15 208.9 267.19 208.9 268.79 215.69 268.79 216.65 268.79 223.44 268.79 223.44 267.19 218.21 265.15"/><polygon class="cls-6" points="293.65 265.15 293.65 174.95 289.57 174.95 289.57 265.15 284.35 267.19 284.35 268.79 291.13 268.79 292.09 268.79 298.88 268.79 298.88 267.19 293.65 265.15"/><polygon class="cls-11" points="223.44 267.19 223.44 268.79 208.89 268.79 208.89 267.19 214.13 265.14 214.13 174.95 218.21 174.95 218.21 265.14 223.44 267.19"/><polygon class="cls-11" points="298.88 267.19 298.88 268.79 284.35 268.79 284.35 267.19 289.57 265.14 289.57 174.95 293.65 174.95 293.65 265.14 298.88 267.19"/><polygon class="cls-12" points="214.13 174.95 218.21 174.95 218.21 183.6 214.13 183.14 214.13 174.95"/><polygon class="cls-12" points="293.65 174.95 293.65 192.06 289.57 191.6 289.57 174.95 293.65 174.95"/><rect class="cls-6" x="201.76" y="92.42" width="104.26" height="88.01"/><rect class="cls-8" x="201.65" y="169.57" width="104.48" height="10.86"/><rect class="cls-8" x="201.65" y="92.42" width="104.48" height="10.86"/><g class="cls-13"><path class="cls-14" d="M229.53,189.25h-5.15v6.65h-3.75v-6.65h-15v-2.71l13.85-17.72h4.18l-13.28,17.1h10.41V180h3.64v5.88h5.15Z" transform="translate(11 -40.04)"/><path class="cls-14" d="M231.84,182.36c0-8.82,4.72-13.85,11.07-13.85s11,5,11,13.85-4.72,13.85-11,13.85S231.84,191.18,231.84,182.36Zm18.23,0c0-6.93-2.94-10.41-7.16-10.41s-7.2,3.48-7.2,10.41,2.94,10.41,7.2,10.41S250.07,189.29,250.07,182.36Z" transform="translate(11 -40.04)"/><path class="cls-14" d="M281.21,189.25h-5.15v6.65h-3.75v-6.65H257.26v-2.71l13.85-17.72h4.18L262,185.92h10.41V180h3.63v5.88h5.15Z" transform="translate(11 -40.04)"/></g><g class="cls-13"><path class="cls-14" d="M230,156.77v1.36H224.4v-7.29h5.5v1.35h-3.83v1.58h3.39v1.32h-3.39v1.68Z" transform="translate(11 -40.04)"/><path class="cls-14" d="M236,158.13l-1.4-2h-1.55v2h-1.69v-7.29h3.15c1.95,0,3.17,1,3.17,2.64a2.35,2.35,0,0,1-1.5,2.3l1.64,2.35Zm-1.58-5.92h-1.37v2.54h1.37c1,0,1.55-.48,1.55-1.27S235.47,152.21,234.44,152.21Z" transform="translate(11 -40.04)"/><path class="cls-14" d="M243.67,158.13l-1.4-2h-1.55v2H239v-7.29h3.15c1.95,0,3.17,1,3.17,2.64a2.35,2.35,0,0,1-1.5,2.3l1.63,2.35Zm-1.58-5.92h-1.37v2.54h1.37c1,0,1.55-.48,1.55-1.27S243.12,152.21,242.09,152.21Z" transform="translate(11 -40.04)"/><path class="cls-14" d="M246.22,154.48a4,4,0,1,1,4,3.77A3.78,3.78,0,0,1,246.22,154.48Zm6.27,0a2.28,2.28,0,1,0-2.28,2.34A2.22,2.22,0,0,0,252.49,154.48Z" transform="translate(11 -40.04)"/><path class="cls-14" d="M260.1,158.13l-1.4-2h-1.55v2h-1.69v-7.29h3.16c1.94,0,3.16,1,3.16,2.64a2.35,2.35,0,0,1-1.5,2.3l1.64,2.35Zm-1.58-5.92h-1.37v2.54h1.37c1,0,1.55-.48,1.55-1.27S259.55,152.21,258.52,152.21Z" transform="translate(11 -40.04)"/></g><g class="cls-15"><polygon class="cls-14" points="212.23 169.57 204.47 180.43 201.76 180.43 201.76 176.43 206.66 169.57 212.23 169.57"/><polygon class="cls-14" points="215.21 180.43 209.64 180.43 217.4 169.57 222.97 169.57 215.21 180.43"/><polygon class="cls-14" points="225.95 180.43 220.38 180.43 228.14 169.57 233.71 169.57 225.95 180.43"/><polygon class="cls-14" points="236.69 180.43 231.12 180.43 238.88 169.57 244.44 169.57 236.69 180.43"/><polygon class="cls-14" points="247.43 180.43 241.86 180.43 249.61 169.57 255.18 169.57 247.43 180.43"/><polygon class="cls-14" points="258.16 180.43 252.6 180.43 260.35 169.57 265.92 169.57 258.16 180.43"/><polygon class="cls-14" points="268.9 180.43 263.33 180.43 271.09 169.57 276.66 169.57 268.9 180.43"/><polygon class="cls-14" points="279.64 180.43 274.07 180.43 281.83 169.57 287.4 169.57 279.64 180.43"/><polygon class="cls-14" points="290.38 180.43 284.81 180.43 292.57 169.57 298.13 169.57 290.38 180.43"/><polygon class="cls-14" points="306.02 169.57 306.02 173.57 301.12 180.43 295.55 180.43 303.3 169.57 306.02 169.57"/></g><g class="cls-15"><polygon class="cls-14" points="212.23 92.42 204.47 103.28 201.76 103.28 201.76 99.28 206.66 92.42 212.23 92.42"/><polygon class="cls-14" points="215.21 103.28 209.64 103.28 217.4 92.42 222.97 92.42 215.21 103.28"/><polygon class="cls-14" points="225.95 103.28 220.38 103.28 228.14 92.42 233.71 92.42 225.95 103.28"/><polygon class="cls-14" points="236.69 103.28 231.12 103.28 238.88 92.42 244.44 92.42 236.69 103.28"/><polygon class="cls-14" points="247.43 103.28 241.86 103.28 249.61 92.42 255.18 92.42 247.43 103.28"/><polygon class="cls-14" points="258.16 103.28 252.6 103.28 260.35 92.42 265.92 92.42 258.16 103.28"/><polygon class="cls-14" points="268.9 103.28 263.33 103.28 271.09 92.42 276.66 92.42 268.9 103.28"/><polygon class="cls-14" points="279.64 103.28 274.07 103.28 281.83 92.42 287.4 92.42 279.64 103.28"/><polygon class="cls-14" points="290.38 103.28 284.81 103.28 292.57 92.42 298.13 92.42 290.38 103.28"/><polygon class="cls-14" points="306.02 92.42 306.02 96.42 301.12 103.28 295.55 103.28 303.3 92.42 306.02 92.42"/></g><polygon class="cls-8" points="212.01 268.02 201.57 216.04 197.57 216.04 187.14 268.02 179.47 272.71 179.47 274.1 219.43 274.1 219.43 272.71 212.01 268.02"/><rect class="cls-9" x="179.47" y="272.71" width="39.96" height="1.75"/><polygon class="cls-9" points="201.57 216.04 197.57 216.04 187.01 267.86 211.88 267.86 201.57 216.04"/><polygon class="cls-16" points="208.54 251.05 206.16 239.12 192.87 239.12 190.44 251.05 208.54 251.05"/><path class="cls-8" d="M114.5,96.06H82.27a6.67,6.67,0,0,0-6.67,6.67V114a6.67,6.67,0,0,0,6.67,6.67h21.42l9.79,10.48-5.31-10.48h6.33a6.67,6.67,0,0,0,6.67-6.67v-11.3A6.67,6.67,0,0,0,114.5,96.06Z" transform="translate(11 -40.04)"/><path class="cls-17" d="M114.5,96.06H82.27a6.67,6.67,0,0,0-6.67,6.67V114a6.67,6.67,0,0,0,6.67,6.67h21.42l9.79,10.48-5.31-10.48h6.33a6.67,6.67,0,0,0,6.67-6.67v-11.3A6.67,6.67,0,0,0,114.5,96.06Z" transform="translate(11 -40.04)"/><path class="cls-8" d="M83.85,107.76a3.83,3.83,0,1,1,3.83,3.68A3.65,3.65,0,0,1,83.85,107.76Zm6.62,0a2.8,2.8,0,1,0-2.79,2.76A2.7,2.7,0,0,0,90.47,107.76Z" transform="translate(11 -40.04)"/><path class="cls-8" d="M92.42,108.63a2.83,2.83,0,1,1,2.83,2.79A2.71,2.71,0,0,1,92.42,108.63Zm4.66,0a1.84,1.84,0,1,0-3.67,0,1.84,1.84,0,1,0,3.67,0Z" transform="translate(11 -40.04)"/><path class="cls-8" d="M105.09,108.63a2.65,2.65,0,0,1-2.76,2.79,2.32,2.32,0,0,1-1.9-.89v2.82h-1v-7.44h1v.86a2.33,2.33,0,0,1,1.94-.91A2.65,2.65,0,0,1,105.09,108.63Zm-1,0a1.84,1.84,0,1,0-1.84,1.92A1.8,1.8,0,0,0,104.09,108.63Z" transform="translate(11 -40.04)"/><path class="cls-8" d="M105.76,110.78l.41-.78a3.53,3.53,0,0,0,1.91.56c.92,0,1.3-.27,1.3-.74,0-1.22-3.44-.16-3.44-2.33,0-1,.87-1.63,2.27-1.63a3.92,3.92,0,0,1,2,.49l-.42.78a2.83,2.83,0,0,0-1.57-.43c-.87,0-1.29.32-1.29.75,0,1.29,3.46.24,3.46,2.35,0,1-.91,1.62-2.36,1.62A3.93,3.93,0,0,1,105.76,110.78Z" transform="translate(11 -40.04)"/><path class="cls-8" d="M111.37,110.76a.66.66,0,0,1,.68-.66.66.66,0,1,1,0,1.32A.66.66,0,0,1,111.37,110.76Zm.09-6.6h1.16l-.19,4.92h-.78Z" transform="translate(11 -40.04)"/><g id="_Group_" data-name="&lt;Group&gt;"><polygon class="cls-18" points="80.84 268.82 85.68 271.61 92.54 260.63 87.69 257.84 80.84 268.82"/><polygon class="cls-12" points="87.69 257.85 92.53 260.63 89 266.3 84.15 263.5 87.69 257.85"/><path class="cls-6" d="M76.1,308.15H69.32a.49.49,0,0,0-.48.38l-1.1,5a.82.82,0,0,0,.64,1l.18,0c2.19,0,3.79-.17,6.55-.17,1.7,0,6.82.18,9.16.18S86.92,312.19,86,312c-4.3-.94-7.54-2.24-8.92-3.47A1.32,1.32,0,0,0,76.1,308.15Z" transform="translate(11 -40.04)"/><path class="cls-8" d="M76.49,308.92a.11.11,0,0,1-.1-.11.12.12,0,0,1,.06-.13c.2-.13,2-1.23,2.62-.91a.4.4,0,0,1,.23.37.79.79,0,0,1-.28.71,1.68,1.68,0,0,1-1.07.28A6,6,0,0,1,76.49,308.92Zm.38-.18a2.74,2.74,0,0,0,2-.1.57.57,0,0,0,.18-.48c0-.1-.05-.15-.09-.15a.33.33,0,0,0-.17,0A5.3,5.3,0,0,0,76.87,308.74Z" transform="translate(11 -40.04)"/><path class="cls-8" d="M76.45,309a.13.13,0,0,1-.06-.12c0-.08.14-1.68.78-2.21a.78.78,0,0,1,.57-.17.44.44,0,0,1,.42.35c.12.59-1,1.82-1.57,2.13h-.07A.08.08,0,0,1,76.45,309Zm.9-2.17a3.1,3.1,0,0,0-.67,1.75c.58-.44,1.29-1.37,1.22-1.73,0,0,0-.13-.19-.13h-.07A.44.44,0,0,0,77.35,306.78Z" transform="translate(11 -40.04)"/><polygon class="cls-18" points="158.94 270.12 164.69 269.45 163.03 257.09 157.27 257.76 158.94 270.12"/><polygon class="cls-12" points="157.27 257.76 163.03 257.09 163.88 263.47 158.13 264.13 157.27 257.76"/><path class="cls-6" d="M153.81,308.15H147a.49.49,0,0,0-.48.38l-1.1,5a.82.82,0,0,0,.64,1l.18,0c2.19,0,3.79-.17,6.55-.17,1.7,0,6.82.18,9.16.18s2.65-2.32,1.69-2.53c-4.3-.94-7.54-2.24-8.92-3.47A1.3,1.3,0,0,0,153.81,308.15Z" transform="translate(11 -40.04)"/><path class="cls-8" d="M154.2,308.92a.11.11,0,0,1-.1-.11.12.12,0,0,1,.06-.13c.2-.13,2-1.23,2.62-.91a.4.4,0,0,1,.23.37.79.79,0,0,1-.28.71,1.68,1.68,0,0,1-1.07.28A6.06,6.06,0,0,1,154.2,308.92Zm.38-.18a2.74,2.74,0,0,0,2-.1.57.57,0,0,0,.18-.48c0-.1-.05-.15-.09-.15a.33.33,0,0,0-.17,0A5.3,5.3,0,0,0,154.58,308.74Z" transform="translate(11 -40.04)"/><path class="cls-8" d="M154.16,309a.13.13,0,0,1-.06-.12c0-.08.14-1.68.79-2.21a.74.74,0,0,1,.56-.17.44.44,0,0,1,.42.35c.12.59-1,1.82-1.57,2.13h-.07A.08.08,0,0,1,154.16,309Zm.9-2.17a3,3,0,0,0-.66,1.75c.57-.44,1.28-1.37,1.21-1.73,0,0,0-.13-.19-.13h-.07A.44.44,0,0,0,155.06,306.78Z" transform="translate(11 -40.04)"/><path class="cls-6" d="M153.61,301,144,298.64s-7-50.73-23.48-73.72a34.41,34.41,0,0,0-6.93-7.4c-1,12.74-2.23,26.3-3.28,33.51-2.58,17.76-27.56,52-27.56,52L74,299.33S94,262.16,95,244.7c1-18.95,1.51-52.18,1.55-56.07h29.64C129,204,150.19,239.2,153.61,301Z" transform="translate(11 -40.04)"/><path class="cls-19" d="M153.61,301,144,298.64s-7-50.73-23.48-73.72a34.41,34.41,0,0,0-6.93-7.4c-1,12.74-2.23,26.3-3.28,33.51-2.58,17.76-27.56,52-27.56,52L74,299.33S94,262.16,95,244.7c1-18.95,1.51-52.18,1.55-56.07h29.64C129,204,150.19,239.2,153.61,301Z" transform="translate(11 -40.04)"/><path class="cls-18" d="M145.35,156c0,2.27,0,4.54-.07,6.82s-.12,4.54-.22,6.81c-.17,4.54-.42,9.08-.7,13.62l-.09-1c.3,2,.56,4.08.82,6.12s.49,4.09.73,6.14.41,4.11.58,6.17.32,4.12.4,6.2l-5.16,1c-.69-2-1.29-3.94-1.93-5.91s-1.17-4-1.74-5.94-1.1-4-1.61-6-1-4-1.5-6l-.07-.28,0-.71c-.12-4.55-.21-9.09-.22-13.64,0-2.27,0-4.54,0-6.81s.06-4.55.16-6.82Z" transform="translate(11 -40.04)"/><path class="cls-8" d="M143.47,153.56c2.43,1.51-.4,17.41.19,29.35a26.75,26.75,0,0,0,.56,3.56l-8.19.92a45.93,45.93,0,0,1-1.16-5.8c-.4-5.56,0-21.3,0-21.3Z" transform="translate(11 -40.04)"/><path class="cls-17" d="M143.66,182.91a26.11,26.11,0,0,0,.57,3.56l-8.21.92a46.51,46.51,0,0,1-1.15-5.8c-.11-1.43-.16-3.54-.17-5.88,0-3.53,0-7.59.07-10.65h0c0-2.8.1-4.77.1-4.77l8.6-6.73C145.9,155.07,143.07,171,143.66,182.91Z" transform="translate(11 -40.04)"/><path class="cls-18" d="M146.05,205.88l1.56,7.66-6.83.28s-1.84-5.21,1.6-8.18Z" transform="translate(11 -40.04)"/><polygon class="cls-18" points="157.03 178.83 151.9 177.82 151.78 173.77 158.61 173.49 157.03 178.83"/><polygon class="cls-8" points="146.31 145.98 155.22 144.56 155.47 147.02 146.91 147.91 146.31 145.98"/><polygon class="cls-20" points="146.31 145.98 155.22 144.56 155.47 147.02 146.91 147.91 146.31 145.98"/><path class="cls-21" d="M134.7,175.71c0-3.53,0-7.59.07-10.65h0a13.78,13.78,0,0,1,2.56-3.89A22,22,0,0,1,134.7,175.71Z" transform="translate(11 -40.04)"/><polygon class="cls-6" points="165.87 262.6 153.45 260.76 153.83 257.32 166.75 259.01 165.87 262.6"/><polygon class="cls-6" points="94.41 265.11 83.21 260.66 84.54 257.32 96.25 261.72 94.41 265.11"/><path class="cls-22" d="M120.47,224.92a34.41,34.41,0,0,0-6.93-7.4l.82-10.54S119.5,215.39,120.47,224.92Z" transform="translate(11 -40.04)"/><path class="cls-8" d="M143.47,153.56c-11.17,18.54-16.13,41.26-16.13,41.26l-5.46,9.37-3.8-10.59-.93-.13-1.36-.21-1.38-.21-2.85-.45-1.44-.24-1.44-.25-1.43-.26-1.41-.26c-1.29-.25-2.55-.51-3.73-.77l-.64-.14c-.87-.21-1.71-.41-2.48-.62s-1.48-.42-2.12-.63l-.47-.16a116.15,116.15,0,0,1,5.37-22.16c.38-1.08.76-2.11,1.15-3.12a90.35,90.35,0,0,1,5.13-11l.12-.22c3.47-6.21,10.5-8.92,14.72-7.85a112.07,112.07,0,0,1,11.75,4.17A75.94,75.94,0,0,1,143.47,153.56Z" transform="translate(11 -40.04)"/><path class="cls-17" d="M143.47,153.56c-11.17,18.54-16.13,41.26-16.13,41.26l-5.46,9.37-3.8-10.59-.93-.13-1.36-.21-1.38-.21-2.85-.45-1.44-.24-1.44-.25-1.43-.26-1.41-.26c-1.29-.25-2.55-.51-3.73-.77l-.64-.14c-.87-.21-1.71-.41-2.48-.62s-1.48-.42-2.12-.63l-.47-.16a116.15,116.15,0,0,1,5.37-22.16c.38-1.08.76-2.11,1.15-3.12a90.35,90.35,0,0,1,5.13-11l.12-.22c3.47-6.21,10.5-8.92,14.72-7.85a112.07,112.07,0,0,1,11.75,4.17A75.94,75.94,0,0,1,143.47,153.56Z" transform="translate(11 -40.04)"/><path class="cls-21" d="M125.54,166.51s-.31,1.69-.7,4.07a39.26,39.26,0,0,1-2.3,7.69c-.6,1.23-3.08,6.13-2.61,8.32s-1.85,7-1.85,7l-.93-.13c.57-2.68,2.5-11.34,3.54-12.35,1.23-1.19,3.14-6.46,2.74-8.44S125.54,166.51,125.54,166.51Z" transform="translate(11 -40.04)"/><path class="cls-18" d="M117.38,205.88l1.56,7.66-6.83.28s-1.84-5.21,1.6-8.18Z" transform="translate(11 -40.04)"/><polygon class="cls-18" points="128.37 178.83 123.22 177.82 123.11 173.77 129.94 173.49 128.37 178.83"/><path class="cls-18" d="M121.69,145.33c.79,2.13,6.79,9.77,6.79,9.77l5.32-6a4.05,4.05,0,0,1-1-1.23,2.93,2.93,0,0,1,.21-3.11,4.91,4.91,0,0,1,1-1,1,1,0,0,0,.16-.13l-2.65-9.9C129.86,137.6,125.6,144.7,121.69,145.33Z" transform="translate(11 -40.04)"/><path class="cls-12" d="M132.83,147.88a2.93,2.93,0,0,1,.21-3.11,4.91,4.91,0,0,1,1-1l-3.95-6.9C127.58,142.4,130.76,146.23,132.83,147.88Z" transform="translate(11 -40.04)"/><path class="cls-18" d="M142.56,125.44s2.14,7.48-1.53,10.94-5.5-10.75-5.5-10.75Z" transform="translate(11 -40.04)"/><path class="cls-23" d="M142.56,125.44s2.14,7.48-1.53,10.94-5.5-10.75-5.5-10.75Z" transform="translate(11 -40.04)"/><path class="cls-18" d="M130.05,144a7,7,0,0,0,8.3,1.66,7.75,7.75,0,0,0,3.94-4.15,6.55,6.55,0,0,0,.28-.78c1.39-4.92.65-16.52-4.35-15.58-4.11.76-8.29-.11-10,3.68a7.47,7.47,0,0,0-.7,3.45C127.57,137.77,127.37,141,130.05,144Z" transform="translate(11 -40.04)"/><path class="cls-24" d="M139.26,134.49a16,16,0,0,0,2,3.94,2.62,2.62,0,0,1-2.18.32Z" transform="translate(11 -40.04)"/><path class="cls-6" d="M137.44,130.55a.3.3,0,0,0-.27.08,2.11,2.11,0,0,1-1.75.76.25.25,0,0,0-.3.22.27.27,0,0,0,.22.3h0a2.64,2.64,0,0,0,2.23-.93.27.27,0,0,0,0-.37h0A.24.24,0,0,0,137.44,130.55Z" transform="translate(11 -40.04)"/><path class="cls-6" d="M140.77,130.23a.23.23,0,0,0-.24.37h0a2.64,2.64,0,0,0,2.07,1.25.27.27,0,0,0,.27-.26h0a.28.28,0,0,0-.27-.27h0a2.13,2.13,0,0,1-1.62-1A.27.27,0,0,0,140.77,130.23Z" transform="translate(11 -40.04)"/><path class="cls-18" d="M128.52,136.08c-.53.16-.56,2.52,0,4.66l-.94.27a15.13,15.13,0,0,1-2.26-4.91c-1.19-4.48-1.35-7.38-.93-9.63l7.43-1,.32,2.44a1.81,1.81,0,0,0-.9,2.29c.8,2-.34,5.24-1.91,6.52C129.32,136.76,129.27,135.87,128.52,136.08Z" transform="translate(11 -40.04)"/><path class="cls-23" d="M128.52,136.08c-.53.16-.56,2.52,0,4.66l-.94.27a15.13,15.13,0,0,1-2.26-4.91c-1.19-4.48-1.35-7.38-.93-9.63l7.43-1,.32,2.44a1.81,1.81,0,0,0-.9,2.29c.8,2-.34,5.24-1.91,6.52C129.32,136.76,129.27,135.87,128.52,136.08Z" transform="translate(11 -40.04)"/><path class="cls-18" d="M124.88,136.67a5.25,5.25,0,0,0,2.9,2.79c1.73.65,2.76-.85,2.42-2.57-.31-1.52-1.57-3.75-3.37-3.65A2.34,2.34,0,0,0,124.88,136.67Z" transform="translate(11 -40.04)"/><path class="cls-6" d="M125.86,124.25s-.9-1.56,1.06-3.4,10.18-2.61,12.64-1.08,4.47.4,4.34-.6a1.86,1.86,0,0,1,.14,2.13s1.57-.08,2.34,2.29a2,2,0,0,0-1.62.45,2.49,2.49,0,0,1,.64,2.3,3,3,0,0,0-1.8-.89,5.32,5.32,0,0,0,.92,1.6s-3.26.37-5-.87a4.8,4.8,0,0,0,1.3,1.44s-5.31,1-7-1.12a3.17,3.17,0,0,0-.53,2.57,3.13,3.13,0,0,1-2.38-1,8.38,8.38,0,0,1-4.48,1.88,5.54,5.54,0,0,0,.74-1s-2.71,1.59-4.49.38a3.41,3.41,0,0,0,.45-1.26l-.71.35S122.38,124.4,125.86,124.25Z" transform="translate(11 -40.04)"/><path class="cls-24" d="M135.53,136.19a3.51,3.51,0,0,1-.51.11.15.15,0,0,1-.15-.12A.15.15,0,0,1,135,136a2,2,0,0,0,1.93-1.46.13.13,0,1,1,.26,0A2.16,2.16,0,0,1,135.53,136.19Z" transform="translate(11 -40.04)"/><path class="cls-24" d="M142.08,136.15H142c-.95-.11-1.38-1.38-1.4-1.44a.13.13,0,0,1,.09-.16.12.12,0,0,1,.16.08s.4,1.17,1.18,1.26a.14.14,0,0,1,.12.15A.16.16,0,0,1,142.08,136.15Z" transform="translate(11 -40.04)"/><path class="cls-6" d="M135.8,134.13c-.05.44.2.82.5.83s.55-.34.57-.79-.21-.82-.5-.83S135.82,133.67,135.8,134.13Z" transform="translate(11 -40.04)"/><path class="cls-6" d="M140.89,134.34c0,.44.21.82.5.83s.54-.34.56-.79-.2-.83-.5-.84S140.91,133.91,140.89,134.34Z" transform="translate(11 -40.04)"/><path class="cls-18" d="M135.33,134.15a4,4,0,0,0,1.85-.37c.55-.41-.45-.8-1-.8S135,133.76,135.33,134.15Z" transform="translate(11 -40.04)"/><path class="cls-18" d="M140.64,134.06a3.92,3.92,0,0,0,1.87.23c.64-.2-.18-.9-.65-1.06S140.45,133.58,140.64,134.06Z" transform="translate(11 -40.04)"/><path class="cls-6" d="M139.48,142.27s-.66.27-1.51.55c-1.53.51-3.69,1-3.82.11a.87.87,0,0,1,.19-.7c.65-.89,2.81-1.22,4.25-1.37a2.29,2.29,0,0,0,.2.71A1.87,1.87,0,0,0,139.48,142.27Z" transform="translate(11 -40.04)"/><path class="cls-25" d="M138,142.82c-1.53.51-3.69,1-3.82.11a.87.87,0,0,1,.19-.7C135.62,142.13,137.36,142.15,138,142.82Z" transform="translate(11 -40.04)"/><path class="cls-14" d="M132.52,133s.78,2,0,2S132.52,133,132.52,133Z" transform="translate(11 -40.04)"/><path class="cls-14" d="M131.23,134.69s.79,2,0,2S131.23,134.69,131.23,134.69Z" transform="translate(11 -40.04)"/><path class="cls-14" d="M141.46,128.26s1.2,1.77.44,1.94S141.46,128.26,141.46,128.26Z" transform="translate(11 -40.04)"/><path class="cls-14" d="M142.25,137.86s.68,2-.1,2S142.25,137.86,142.25,137.86Z" transform="translate(11 -40.04)"/><path class="cls-8" d="M120.69,143.84s3.8,11.33,6.08,15.61l.5-.53s-4.18-11.9-4.82-15.08Z" transform="translate(11 -40.04)"/><path class="cls-8" d="M132.55,149.33a22.28,22.28,0,0,1-3,10.12v.84s3-2.53,3.91-10.06Z" transform="translate(11 -40.04)"/><path class="cls-8" d="M126.38,159.19l.75-1.32c1.36,1.73,2.52.8,2.52.8l.49,1.06-1.31,3.62h-1.36Z" transform="translate(11 -40.04)"/><path class="cls-8" d="M128.75,161.56s-.51,12.23,0,19.32c.33,4.53.67,12.67.45,14.83l-2,1.57-1.61-2.47s1.26-3.35.67-11.85,1.58-21.1,1.58-21.1Z" transform="translate(11 -40.04)"/><polygon class="cls-8" points="129.15 104.47 133.21 102.31 138.77 107.47 139.03 114.17 143.01 108.73 145.43 107.5 147.19 110.44 144.97 113.99 143.55 112.16 138.78 116.21 135.27 110.62 132.91 111.9 129.15 104.47"/><polygon class="cls-20" points="129.15 104.47 133.21 102.31 138.77 107.47 139.03 114.17 143.01 108.73 145.43 107.5 147.19 110.44 144.97 113.99 143.55 112.16 138.78 116.21 135.27 110.62 132.91 111.9 129.15 104.47"/><polygon class="cls-26" points="138.78 116.21 143.13 110.63 144.97 113.99 143.55 112.16 138.78 116.21"/><polygon class="cls-26" points="138.78 116.21 136.8 109 132.91 111.9 135.27 110.62 138.78 116.21"/><path class="cls-21" d="M115.55,188.63l-6.94.74s-7.41-11.25-6.84-22.26c.38-1.08.76-2.11,1.15-3.12a90.35,90.35,0,0,1,5.13-11,12.55,12.55,0,0,1,1.76-1.38L117,162.33S117.44,179.76,115.55,188.63Z" transform="translate(11 -40.04)"/><path class="cls-18" d="M116.68,156c0,2.27-.05,4.54-.07,6.82s-.12,4.54-.22,6.81c-.17,4.54-.42,9.08-.7,13.62l-.09-1c.3,2,.56,4.08.82,6.12s.49,4.09.73,6.14.41,4.11.58,6.17.32,4.12.4,6.2l-5.16,1c-.69-2-1.29-3.94-1.93-5.91s-1.17-4-1.74-5.94-1.1-4-1.61-6-1-4-1.5-6l-.07-.28,0-.71c-.12-4.55-.21-9.09-.22-13.64,0-2.27,0-4.54,0-6.81s.06-4.55.16-6.82Z" transform="translate(11 -40.04)"/><path class="cls-8" d="M112.1,149.9c3.88,1.69,5.05,8,5.05,8s-2,24-1.87,25,.27,2.89.27,2.89l-8.32,1.59s-.7-4.48-1.1-13.62,0-16.77,1.89-20.14S112.1,149.9,112.1,149.9Z" transform="translate(11 -40.04)"/><path class="cls-17" d="M112.1,149.9c3.88,1.69,5.05,8,5.05,8s-2,24-1.87,25,.27,2.89.27,2.89l-8.32,1.59s-.7-4.48-1.1-13.62,0-16.77,1.89-20.14S112.1,149.9,112.1,149.9Z" transform="translate(11 -40.04)"/><polygon class="cls-8" points="116.99 145.95 127.17 144.26 126.55 146.85 118.13 148.58 116.99 145.95"/><polygon class="cls-20" points="116.99 145.95 127.17 144.26 126.55 146.85 118.13 148.58 116.99 145.95"/><path class="cls-6" d="M161.16,223.48l-1.65,23.94a1.49,1.49,0,0,1-1.62,1.34l-31-1.71a1.45,1.45,0,0,1-1.42-1.51l1.64-23.95a1.5,1.5,0,0,1,1.63-1.33l31,1.7A1.46,1.46,0,0,1,161.16,223.48Z" transform="translate(11 -40.04)"/><path class="cls-27" d="M130.8,221.81l-1.65,23.94a1.5,1.5,0,0,1-1.62,1.34l-.62,0a1.45,1.45,0,0,1-1.42-1.51l1.64-23.95a1.5,1.5,0,0,1,1.63-1.33l.62,0A1.46,1.46,0,0,1,130.8,221.81Z" transform="translate(11 -40.04)"/><path class="cls-8" d="M145.08,244.14l13.93-2.5s7.06,13.58,11.19,17.27l-15.46,5.71A51.36,51.36,0,0,1,145.08,244.14Z" transform="translate(11 -40.04)"/><path class="cls-17" d="M145.08,244.14l13.93-2.5s7.06,13.58,11.19,17.27l-15.46,5.71A51.36,51.36,0,0,1,145.08,244.14Z" transform="translate(11 -40.04)"/><path class="cls-8" d="M144.72,231.07c2.61,1.57,10.37,14,10.37,14l16.26-9s-8.28-7.79-10.89-8.76S144.72,231.07,144.72,231.07Z" transform="translate(11 -40.04)"/><path class="cls-20" d="M144.5,231.07c2.65,1.57,10.54,14,10.54,14l16.53-9s-8.42-7.79-11.07-8.76S144.5,231.07,144.5,231.07Z" transform="translate(11 -40.04)"/><path class="cls-8" d="M134.69,226.89a54.62,54.62,0,0,1,3.74,13.57l21.38-3.77s-3.17-8.37-4.53-9.8S134.69,226.89,134.69,226.89Z" transform="translate(11 -40.04)"/><path class="cls-17" d="M134.69,226.89a54.62,54.62,0,0,1,3.74,13.57l21.38-3.77s-3.17-8.37-4.53-9.8S134.69,226.89,134.69,226.89Z" transform="translate(11 -40.04)"/><path class="cls-28" d="M136.94,221.39s2.25-7.42,5.75-6.89,8.27,3.71,9.16,7.69" transform="translate(11 -40.04)"/><path class="cls-6" d="M129.81,220.33a2,2,0,0,1,1.7,1.48l2.07,10.85a1.58,1.58,0,0,0,1.42,1.18l27.91,1.53a.87.87,0,0,0,1-1l-2.08-10.89a2,2,0,0,0-1.77-1.46l-31-1.71Z" transform="translate(11 -40.04)"/><path class="cls-29" d="M129.81,220.33a2,2,0,0,1,1.7,1.48l2.07,10.85a1.58,1.58,0,0,0,1.42,1.18l27.91,1.53a.87.87,0,0,0,1-1l-2.08-10.89a2,2,0,0,0-1.77-1.46l-31-1.71Z" transform="translate(11 -40.04)"/><path class="cls-27" d="M152.85,239.74l-2.17-.12a.59.59,0,0,1-.49-.42l-1.72-6.63,2.95.18,1.72,6.62A.27.27,0,0,1,152.85,239.74Z" transform="translate(11 -40.04)"/><path class="cls-6" d="M152.21,237.56h0l-2.07-.12a1,1,0,0,1-.8-.68l-.34-1.31a.59.59,0,0,1,.1-.52.49.49,0,0,1,.45-.18l2.08.12a.92.92,0,0,1,.79.67l.34,1.32a.56.56,0,0,1-.09.51A.51.51,0,0,1,152.21,237.56Zm0-.34a.21.21,0,0,0,.17-.06.26.26,0,0,0,0-.22l-.34-1.31a.59.59,0,0,0-.48-.42l-2.08-.12a.2.2,0,0,0-.17.06.22.22,0,0,0,0,.21l.34,1.32a.59.59,0,0,0,.48.42Z" transform="translate(11 -40.04)"/><g class="cls-30"><path class="cls-14" d="M152.21,237.56h0l-2.07-.12a1,1,0,0,1-.8-.68l-.34-1.31a.59.59,0,0,1,.1-.52.49.49,0,0,1,.45-.18l2.08.12a.92.92,0,0,1,.79.67l.34,1.32a.56.56,0,0,1-.09.51A.51.51,0,0,1,152.21,237.56Zm0-.34a.21.21,0,0,0,.17-.06.26.26,0,0,0,0-.22l-.34-1.31a.59.59,0,0,0-.48-.42l-2.08-.12a.2.2,0,0,0-.17.06.22.22,0,0,0,0,.21l.34,1.32a.59.59,0,0,0,.48.42Z" transform="translate(11 -40.04)"/></g></g></svg>