<?xml version="1.0" encoding="UTF-8"?>
<!DOCTYPE svg PUBLIC "-//W3C//DTD SVG 1.1//EN" "http://www.w3.org/Graphics/SVG/1.1/DTD/svg11.dtd">
<!-- Creator: CorelDRAW 2018 (64 Bit Versão de avaliação) -->
<svg xmlns="http://www.w3.org/2000/svg" xml:space="preserve" width="27.1741mm" height="38.8678mm" version="1.1" style="shape-rendering:geometricPrecision; text-rendering:geometricPrecision; image-rendering:optimizeQuality; fill-rule:evenodd; clip-rule:evenodd"
viewBox="0 0 550.32 787.13"
 xmlns:xlink="http://www.w3.org/1999/xlink">
 <defs>
  <style type="text/css">
   <![CDATA[
    .str0 {stroke:#48639A;stroke-width:15.19;stroke-miterlimit:22.9256}
    .fil0 {fill:url(#id0)}
    .fil3 {fill:url(#id1)}
    .fil2 {fill:url(#id2)}
    .fil1 {fill:url(#id3)}
   ]]>
  </style>
  <linearGradient id="id0" gradientUnits="userSpaceOnUse" x1="405.31" y1="743.43" x2="144.05" y2="44.06">
   <stop offset="0" style="stop-opacity:1; stop-color:#DBE6F5"/>
   <stop offset="0.4" style="stop-opacity:1; stop-color:#ECF2F9"/>
   <stop offset="1" style="stop-opacity:1; stop-color:#FEFEFE"/>
  </linearGradient>
  <linearGradient id="id1" gradientUnits="userSpaceOnUse" x1="318.92" y1="627.86" x2="191.23" y2="255.45">
   <stop offset="0" style="stop-opacity:1; stop-color:white"/>
   <stop offset="1" style="stop-opacity:1; stop-color:#DBE6F5"/>
  </linearGradient>
  <linearGradient id="id2" gradientUnits="userSpaceOnUse" x1="332.47" y1="629.42" x2="213.18" y2="250.81">
   <stop offset="0" style="stop-opacity:1; stop-color:white"/>
   <stop offset="1" style="stop-opacity:1; stop-color:#8DAAD4"/>
  </linearGradient>
  <linearGradient id="id3" gradientUnits="userSpaceOnUse" x1="506.14" y1="207.67" x2="374.98" y2="42.86">
   <stop offset="0" style="stop-opacity:1; stop-color:#D5E1F3"/>
   <stop offset="1" style="stop-opacity:1; stop-color:#FEFEFE"/>
  </linearGradient>
 </defs>
 <g id="Camada_x0020_1">
  <metadata id="CorelCorpID_0Corel-Layer"/>
  <path class="fil0 str0" d="M28.36 7.95l315.9 0c0,0 197.51,216.17 197.51,216.17l0 534.65c0,11.42 -9.35,20.76 -20.77,20.76l-492.64 0c-11.42,0 -20.76,-9.34 -20.76,-20.76l0 -730.06c0,-11.42 9.34,-20.76 20.76,-20.76z"/>
  <polygon class="fil1 str0" points="347.56,221.58 537.55,222.99 533.78,216 352,13.3 345.18,10.84 "/>
  <path class="fil2 str0" d="M272.83 241.64c109.62,0 198.48,88.86 198.48,198.48 0,109.61 -88.86,198.48 -198.48,198.48 -109.62,0 -198.48,-88.86 -198.48,-198.48 0,-109.62 88.86,-198.48 198.48,-198.48z"/>
  <path class="fil3 str0" d="M271.17 441.66l166.29 108.35c-36.63,56.22 -99.19,90.12 -166.29,90.12 -109.61,0 -198.48,-88.86 -198.48,-198.48 0,-109.62 88.86,-198.48 198.48,-198.48l0 198.48z"/>
 </g>
</svg>
