<?xml version="1.0" encoding="UTF-8"?>
<!DOCTYPE svg PUBLIC "-//W3C//DTD SVG 1.1//EN" "http://www.w3.org/Graphics/SVG/1.1/DTD/svg11.dtd">
<!-- Creator: CorelDRAW 2018 (64 Bit Versão de avaliação) -->
<svg xmlns="http://www.w3.org/2000/svg" xml:space="preserve" width="27.1741mm" height="38.8678mm" version="1.1" style="shape-rendering:geometricPrecision; text-rendering:geometricPrecision; image-rendering:optimizeQuality; fill-rule:evenodd; clip-rule:evenodd"
viewBox="0 0 550.32 787.13"
 xmlns:xlink="http://www.w3.org/1999/xlink">
 <defs>
  <style type="text/css">
   <![CDATA[
    .str0 {stroke:#48639A;stroke-width:15.19;stroke-miterlimit:22.9256}
    .fil2 {fill:none}
    .fil0 {fill:url(#id0)}
    .fil5 {fill:url(#id1)}
    .fil4 {fill:url(#id2)}
    .fil3 {fill:url(#id3)}
    .fil6 {fill:url(#id4)}
    .fil1 {fill:url(#id5)}
   ]]>
  </style>
  <linearGradient id="id0" gradientUnits="userSpaceOnUse" x1="405.31" y1="743.43" x2="144.05" y2="44.06">
   <stop offset="0" style="stop-opacity:1; stop-color:#E7EFF9"/>
   <stop offset="0.4" style="stop-opacity:1; stop-color:#F2F6FB"/>
   <stop offset="1" style="stop-opacity:1; stop-color:#FEFEFE"/>
  </linearGradient>
  <linearGradient id="id1" gradientUnits="userSpaceOnUse" x1="147.85" y1="532.36" x2="272.32" y2="420.13">
   <stop offset="0" style="stop-opacity:1; stop-color:#83A2CF"/>
   <stop offset="1" style="stop-opacity:1; stop-color:#D5E0F5"/>
  </linearGradient>
  <linearGradient id="id2" gradientUnits="userSpaceOnUse" x1="278.95" y1="547.09" x2="389.44" y2="434.29">
   <stop offset="0" style="stop-opacity:1; stop-color:#B9CCE7"/>
   <stop offset="1" style="stop-opacity:1; stop-color:#FEFEFE"/>
  </linearGradient>
  <linearGradient id="id3" gradientUnits="userSpaceOnUse" xlink:href="#id2" x1="108.9" y1="569.86" x2="189.97" y2="461.59">
  </linearGradient>
  <linearGradient id="id4" gradientUnits="userSpaceOnUse" xlink:href="#id1" x1="375.55" y1="589.83" x2="414.13" y2="504.86">
  </linearGradient>
  <linearGradient id="id5" gradientUnits="userSpaceOnUse" x1="506.14" y1="207.67" x2="374.98" y2="42.86">
   <stop offset="0" style="stop-opacity:1; stop-color:#D5E1F3"/>
   <stop offset="1" style="stop-opacity:1; stop-color:#FEFEFE"/>
  </linearGradient>
 </defs>
 <g id="Camada_x0020_1">
  <metadata id="CorelCorpID_0Corel-Layer"/>
  <path class="fil0 str0" d="M28.36 7.95l315.9 0c0,0 197.51,216.17 197.51,216.17l0 534.65c0,11.42 -9.35,20.76 -20.77,20.76l-492.64 0c-11.42,0 -20.76,-9.34 -20.76,-20.76l0 -730.06c0,-11.42 9.34,-20.76 20.76,-20.76z"/>
  <polygon class="fil1 str0" points="347.56,221.58 537.55,222.99 533.78,216 352,13.3 345.18,10.84 "/>
  <polyline class="fil2 str0" points="79.28,297.87 79.28,596.27 460.14,599.57 "/>
  <polygon class="fil3 str0" points="118.66,434.44 180.22,434.44 180.22,597 118.66,597 "/>
  <polygon class="fil4 str0" points="303.41,384.38 364.98,384.38 364.98,597 303.41,597 "/>
  <polygon class="fil5 str0" points="179.3,355.85 240.87,355.85 240.87,596.64 179.3,596.64 "/>
  <polygon class="fil6 str0" points="364.06,498.04 425.62,498.04 425.62,596.64 364.06,596.64 "/>
 </g>
</svg>
