<?xml version="1.0" encoding="UTF-8"?>
<!DOCTYPE svg PUBLIC "-//W3C//DTD SVG 1.1//EN" "http://www.w3.org/Graphics/SVG/1.1/DTD/svg11.dtd">
<!-- Creator: CorelDRAW 2018 (64 Bit Versão de avaliação) -->
<svg xmlns="http://www.w3.org/2000/svg" xml:space="preserve" width="43.5722mm" height="30.4714mm" version="1.1" style="shape-rendering:geometricPrecision; text-rendering:geometricPrecision; image-rendering:optimizeQuality; fill-rule:evenodd; clip-rule:evenodd"
viewBox="0 0 5919.64 4139.79"
 xmlns:xlink="http://www.w3.org/1999/xlink">
 <defs>
  <style type="text/css">
   <![CDATA[
    .str0 {stroke:#48639A;stroke-width:101.89;stroke-miterlimit:22.9256}
    .fil2 {fill:none}
    .fil0 {fill:url(#id0)}
    .fil3 {fill:url(#id1)}
    .fil4 {fill:url(#id2)}
    .fil1 {fill:url(#id3)}
    .fil6 {fill:url(#id4)}
    .fil5 {fill:url(#id5)}
   ]]>
  </style>
  <linearGradient id="id0" gradientUnits="userSpaceOnUse" x1="4539.87" y1="3923.32" x2="1377.28" y2="228.45">
   <stop offset="0" style="stop-opacity:1; stop-color:#DCE6F7"/>
   <stop offset="0.239216" style="stop-opacity:1; stop-color:#EDF2FA"/>
   <stop offset="1" style="stop-opacity:1; stop-color:#FEFEFE"/>
  </linearGradient>
  <linearGradient id="id1" gradientUnits="userSpaceOnUse" x1="1515.73" y1="3054.26" x2="2164.21" y2="2188.17">
   <stop offset="0" style="stop-opacity:1; stop-color:#B9CCE7"/>
   <stop offset="1" style="stop-opacity:1; stop-color:#FEFEFE"/>
  </linearGradient>
  <linearGradient id="id2" gradientUnits="userSpaceOnUse" xlink:href="#id1" x1="2876" y1="2872.15" x2="3759.77" y2="1969.78">
  </linearGradient>
  <linearGradient id="id3" gradientUnits="userSpaceOnUse" x1="5535.37" y1="1366.07" x2="4517.79" y2="230.39">
   <stop offset="0" style="stop-opacity:1; stop-color:#D5E1F3"/>
   <stop offset="1" style="stop-opacity:1; stop-color:#FEFEFE"/>
  </linearGradient>
  <linearGradient id="id4" gradientUnits="userSpaceOnUse" x1="3648.66" y1="3213.96" x2="3957.33" y2="2534.31">
   <stop offset="0" style="stop-opacity:1; stop-color:#83A2CF"/>
   <stop offset="1" style="stop-opacity:1; stop-color:#D5E0F5"/>
  </linearGradient>
  <linearGradient id="id5" gradientUnits="userSpaceOnUse" xlink:href="#id4" x1="1827.23" y1="2754.27" x2="2822.96" y2="1856.53">
  </linearGradient>
 </defs>
 <g id="Camada_x0020_1">
  <metadata id="CorelCorpID_0Corel-Layer"/>
  <path class="fil0 str0" d="M5866.2 3932.36l0 -2380.85c0,0 -1629.24,-1488.59 -1629.24,-1488.59l-4029.53 0c-86.07,0 -156.48,70.42 -156.48,156.48l0 3712.95c0,86.07 70.42,156.48 156.48,156.48l5502.29 0c86.07,0 156.48,-70.42 156.48,-156.48z"/>
  <polygon class="fil1 str0" points="4243.28,1530.78 5824.68,1518.5 5791.38,1468.79 4281.41,79.15 4228.48,65.69 "/>
  <polyline class="fil2 str0" points="920.83,878.55 920.83,3265.54 5041.02,3291.93 "/>
  <polygon class="fil3 str0" points="1593.74,1971.02 2086.23,1971.02 2086.23,3271.39 1593.74,3271.39 "/>
  <polygon class="fil4 str0" points="3071.63,1570.55 3564.13,1570.55 3564.13,3271.39 3071.63,3271.39 "/>
  <polygon class="fil5 str0" points="2078.85,1342.31 2571.35,1342.31 2571.35,3268.52 2078.85,3268.52 "/>
  <polygon class="fil6 str0" points="3556.76,2479.77 4049.24,2479.77 4049.24,3268.52 3556.76,3268.52 "/>
 </g>
</svg>
