<?xml version="1.0" encoding="UTF-8"?>
<!DOCTYPE svg PUBLIC "-//W3C//DTD SVG 1.1//EN" "http://www.w3.org/Graphics/SVG/1.1/DTD/svg11.dtd">
<!-- Creator: CorelDRAW 2018 (64 Bit Versão de avaliação) -->
<svg xmlns="http://www.w3.org/2000/svg" xml:space="preserve" width="43.5722mm" height="30.4714mm" version="1.1" style="shape-rendering:geometricPrecision; text-rendering:geometricPrecision; image-rendering:optimizeQuality; fill-rule:evenodd; clip-rule:evenodd"
viewBox="0 0 5919.64 4139.79"
 xmlns:xlink="http://www.w3.org/1999/xlink">
 <defs>
  <style type="text/css">
   <![CDATA[
    .str0 {stroke:#48639A;stroke-width:101.89;stroke-miterlimit:22.9256}
    .fil0 {fill:url(#id0)}
    .fil2 {fill:url(#id1)}
    .fil3 {fill:url(#id2)}
    .fil1 {fill:url(#id3)}
   ]]>
  </style>
  <linearGradient id="id0" gradientUnits="userSpaceOnUse" x1="4539.87" y1="3923.32" x2="1377.28" y2="228.45">
   <stop offset="0" style="stop-opacity:1; stop-color:#DCE6F7"/>
   <stop offset="0.239216" style="stop-opacity:1; stop-color:#EDF2FA"/>
   <stop offset="1" style="stop-opacity:1; stop-color:#FEFEFE"/>
  </linearGradient>
  <linearGradient id="id1" gradientUnits="userSpaceOnUse" x1="3170.2" y1="3673.16" x2="2271.17" y2="819.7">
   <stop offset="0" style="stop-opacity:1; stop-color:white"/>
   <stop offset="1" style="stop-opacity:1; stop-color:#8DAAD4"/>
  </linearGradient>
  <linearGradient id="id2" gradientUnits="userSpaceOnUse" x1="3068.1" y1="3661.42" x2="2105.74" y2="854.67">
   <stop offset="0" style="stop-opacity:1; stop-color:white"/>
   <stop offset="1" style="stop-opacity:1; stop-color:#DBE6F5"/>
  </linearGradient>
  <linearGradient id="id3" gradientUnits="userSpaceOnUse" x1="5535.37" y1="1366.07" x2="4517.79" y2="230.39">
   <stop offset="0" style="stop-opacity:1; stop-color:#D5E1F3"/>
   <stop offset="1" style="stop-opacity:1; stop-color:#FEFEFE"/>
  </linearGradient>
 </defs>
 <g id="Camada_x0020_1">
  <metadata id="CorelCorpID_0Corel-Layer"/>
  <path class="fil0 str0" d="M5866.2 3932.36l0 -2380.85c0,0 -1629.24,-1488.59 -1629.24,-1488.59l-4029.53 0c-86.07,0 -156.48,70.42 -156.48,156.48l0 3712.95c0,86.07 70.42,156.48 156.48,156.48l5502.29 0c86.07,0 156.48,-70.42 156.48,-156.48z"/>
  <polygon class="fil1 str0" points="4243.28,1530.78 5824.68,1518.5 5791.38,1468.79 4281.41,79.15 4228.48,65.69 "/>
  <path class="fil2 str0" d="M2720.68 750.56c826.14,0 1495.87,669.73 1495.87,1495.87 0,826.14 -669.73,1495.88 -1495.87,1495.88 -826.14,0 -1495.88,-669.74 -1495.88,-1495.88 0,-826.14 669.74,-1495.87 1495.88,-1495.87z"/>
  <path class="fil3 str0" d="M2708.2 2258.05l1253.29 816.63c-276.08,423.71 -747.56,679.24 -1253.29,679.24 -826.14,0 -1495.87,-669.73 -1495.87,-1495.87 0,-826.14 669.73,-1495.87 1495.87,-1495.87l0 1495.87z"/>
 </g>
</svg>
